<svg version="1.1" id="Layer_1" xmlns="http://www.w3.org/2000/svg" xmlns:xlink="http://www.w3.org/1999/xlink" x="0px" y="0px"
	 width="100%" viewBox="0 0 500 500" enable-background="new 0 0 500 500" xml:space="preserve">
<path fill="#FE3232" opacity="1.000000" stroke="none" 
	d="
M1.000000,200.000000 
	C1.000000,133.349854 1.000000,67.199707 1.000000,1.024781 
	C167.608521,1.024781 334.217072,1.024781 500.912781,1.024781 
	C500.912781,167.566879 500.912781,334.133820 500.912781,500.850372 
	C334.333435,500.850372 167.666733,500.850372 1.000000,500.850372 
	C1.000000,400.782806 1.000000,300.641418 1.000000,200.000000 
M348.931458,425.928589 
	C348.931458,425.928589 348.841522,425.928650 349.295624,425.656647 
	C349.488037,425.365448 349.680450,425.074249 349.869904,424.859955 
	C349.869904,424.859955 349.794037,424.846954 350.496307,424.617584 
	C350.878387,423.535858 351.260468,422.454132 351.615204,421.136597 
	C351.615204,421.136597 351.815216,421.008698 352.462952,420.555664 
	C352.878571,413.943878 353.335297,407.333984 353.637451,400.717010 
	C353.663666,400.142883 352.670074,399.522156 352.067474,398.913513 
	C352.067474,398.913513 352.082611,398.831635 351.745239,398.193695 
	C349.135742,398.402008 346.526276,398.610352 343.937256,398.911926 
	C343.937256,398.911926 343.842987,398.927124 343.172241,399.300171 
	C342.805359,400.992584 342.172455,402.677002 342.121155,404.378937 
	C341.964172,409.586853 342.030731,414.801514 342.000000,420.000000 
	C342.000000,420.000000 342.013367,420.010712 341.206970,419.963684 
	C339.343384,419.810852 337.479767,419.658020 335.459167,419.455414 
	C335.459167,419.455414 335.472290,419.291229 335.699280,418.335480 
	C335.781219,415.175934 336.094421,412.000763 335.882111,408.861115 
	C335.655823,405.514526 334.932678,402.201599 334.180511,398.845032 
	C334.180511,398.845032 334.117126,398.605652 333.726898,398.020172 
	C329.850433,396.375488 326.563232,396.428558 324.200439,400.679565 
	C323.728149,401.529236 321.961548,401.659454 320.888489,402.112061 
	C320.888489,402.112061 320.875183,402.208344 320.666534,401.719513 
	C320.391144,401.504639 320.115753,401.289764 319.921631,401.066559 
	C319.921631,401.066559 319.896667,401.144348 319.719177,400.444794 
	C315.100586,396.462463 303.842529,395.544891 298.945221,398.921387 
	C298.945221,398.921387 298.772888,398.932220 298.114075,399.309906 
	C297.813904,399.885376 297.257812,400.458282 297.252075,401.036682 
	C297.168182,409.481812 297.103516,417.928314 297.204681,426.372498 
	C297.216156,427.331757 298.257935,428.278687 299.518280,429.520630 
	C301.683350,429.392334 303.848419,429.264069 306.020782,428.978394 
	C306.020782,428.978394 305.977264,428.826965 306.524048,428.887726 
	C306.641083,428.579315 306.758087,428.270935 307.046204,428.038269 
	C307.046204,428.038269 307.230927,428.067627 307.577850,427.542572 
	C307.471649,426.350464 307.365448,425.158325 307.138092,423.204956 
	C307.195282,422.184021 307.252472,421.163086 308.161957,420.099792 
	C311.101318,419.383911 314.040680,418.667999 316.989624,418.004913 
	C316.989624,418.004913 316.950806,417.967072 317.626221,417.977600 
	C318.408722,417.306183 319.191223,416.634766 320.000000,416.000183 
	C320.000000,416.000183 319.964691,415.971497 320.583313,415.895203 
	C322.785797,414.561829 324.105621,414.884949 324.774811,417.652710 
	C325.222931,419.506165 326.305573,421.206207 327.036072,422.961090 
	C327.036072,422.961090 327.072693,422.901886 327.136169,423.505432 
	C327.523224,423.950317 327.910309,424.395233 328.182068,424.842804 
	C328.182068,424.842804 328.192169,424.727875 328.397125,425.217377 
	C328.660614,425.447693 328.924072,425.678009 329.093353,425.903381 
	C329.093353,425.903381 329.105377,425.809784 329.341858,426.284851 
	C329.626923,426.486267 329.911957,426.687683 330.092407,426.901611 
	C330.092407,426.901611 330.086975,426.796387 330.420074,427.289398 
	C330.944275,427.527466 331.468475,427.765533 332.000000,427.999023 
	C332.000000,427.999023 331.998566,428.006683 332.282318,428.659149 
	C338.150818,432.026611 344.772034,431.230438 347.853424,426.864960 
	C347.853424,426.864960 347.774933,426.860199 348.262238,426.649902 
	C348.483551,426.379547 348.704865,426.109192 348.931458,425.928589 
M403.840942,402.135773 
	C403.840942,402.135773 403.827698,402.219177 403.663788,401.559723 
	C402.723694,401.088074 401.783600,400.616425 400.912598,400.125854 
	C400.912598,400.125854 400.915436,400.197449 400.556580,399.550842 
	C397.970734,398.718719 395.368835,397.150238 392.802399,397.206268 
	C387.292358,397.326569 381.800568,398.284668 376.097687,398.894684 
	C376.097687,398.894684 376.093079,398.691010 375.686859,398.053436 
	C370.340088,397.745544 364.995453,397.350128 359.644348,397.217743 
	C358.773285,397.196167 357.873444,398.338562 356.929260,399.461945 
	C356.875183,399.627380 356.821106,399.792847 356.383423,400.695190 
	C356.250977,407.757202 356.011078,414.819794 356.046234,421.880951 
	C356.058014,424.247253 356.771057,426.610046 357.023621,428.988647 
	C357.023621,428.988647 357.021423,428.848053 357.686981,429.352173 
	C363.788605,429.225281 369.890198,429.098419 375.995361,429.003632 
	C375.995361,429.003632 375.968262,428.980835 376.802887,429.008270 
	C378.194122,429.012329 379.585327,429.016357 381.914520,429.016449 
	C384.720520,429.020477 387.531494,428.918182 390.331482,429.049683 
	C397.040558,429.364777 402.969330,427.778046 406.388031,421.515137 
	C409.791870,415.279358 408.852936,409.111816 404.639557,402.823853 
	C404.345337,402.591644 404.051147,402.359436 403.840942,402.135773 
M286.065948,398.926086 
	C286.065948,398.926086 286.072235,398.819611 285.710297,398.156494 
	C280.363983,397.856567 275.019714,397.471497 269.669250,397.341766 
	C268.793060,397.320526 267.889587,398.423859 266.997559,398.999329 
	C266.997559,398.999329 267.004089,398.997650 266.266815,399.040344 
	C265.289886,398.978119 264.312958,398.915894 263.169098,398.849182 
	C263.169098,398.849182 263.122009,398.688995 262.702484,398.065887 
	C255.095291,398.178253 247.488113,398.290588 239.290497,399.068970 
	C239.290497,400.986511 239.290497,402.904083 239.290497,405.034912 
	C241.896042,405.234680 244.293365,405.418488 247.104218,405.634003 
	C247.104218,413.569763 247.104218,421.102966 247.104218,429.353790 
	C250.302704,428.893066 252.970551,428.508789 256.136993,427.596893 
	C256.358521,424.345520 256.760010,421.094238 256.760895,417.842804 
	C256.762329,412.513824 255.724304,406.798798 263.104675,405.064148 
	C263.104675,405.064148 263.224243,405.097076 263.779144,405.002350 
	C267.106689,403.198425 265.962982,406.147888 266.020508,407.292328 
	C266.368164,414.211334 266.570862,421.137665 267.375732,428.744080 
	C273.588409,428.744080 279.801086,428.744080 286.456848,428.744080 
	C286.318329,426.325378 286.203339,424.317871 286.093445,422.399109 
	C275.459625,421.595154 275.459625,421.595154 276.043854,417.170685 
	C278.876831,416.993317 281.783630,416.811371 285.030945,416.608063 
	C285.030945,414.536133 285.030945,412.745880 284.799530,410.260315 
	C282.506683,409.567719 280.213837,408.875153 277.276581,407.987915 
	C280.771606,406.856781 283.419403,405.999878 286.072540,405.064789 
	C286.072540,405.064789 286.150543,405.072113 286.770721,404.807037 
	C286.571320,402.848297 286.371918,400.889587 286.065948,398.926086 
M208.566086,399.697296 
	C208.393997,407.072113 208.119049,414.446808 208.109344,421.821838 
	C208.106232,424.190094 208.803284,426.559296 209.063950,428.945099 
	C209.063950,428.945099 209.065979,428.827789 209.728226,429.317719 
	C214.699493,429.496185 219.671310,429.660583 224.641800,429.858643 
	C227.470169,429.971375 229.622482,429.303650 229.724869,425.904602 
	C229.824951,422.581421 228.321213,421.058167 224.932144,421.025055 
	C223.144165,421.007568 221.362320,420.361298 219.577713,419.998932 
	C219.677628,419.536774 219.777542,419.074615 219.877441,418.612457 
	C222.202301,417.982819 224.527161,417.353180 226.946671,416.371002 
	C226.946671,416.371002 227.116684,416.048004 227.487671,415.476196 
	C227.345917,413.978394 227.204163,412.480591 227.000931,410.954254 
	C227.000931,410.954254 227.045044,410.902802 226.809937,410.222351 
	C224.822037,409.548492 222.834137,408.874634 220.253250,407.999756 
	C223.023453,406.979645 225.048248,406.234009 227.664810,405.133698 
	C227.976898,404.798309 228.289001,404.462921 229.052963,403.803223 
	C228.912628,402.488831 228.772308,401.174438 228.326126,399.325409 
	C228.242340,399.138000 228.158539,398.950562 227.696655,398.112213 
	C222.352432,397.823059 217.010101,397.448273 211.662109,397.330688 
	C210.791992,397.311584 209.896851,398.430511 208.997070,399.002167 
	C208.997070,399.002167 209.020905,399.006531 208.566086,399.697296 
M111.500175,332.367401 
	C109.000595,332.367371 106.501022,332.366211 104.001442,332.367554 
	C88.170441,332.375977 72.339439,332.377625 56.508457,332.400513 
	C53.754169,332.404510 50.977802,332.387970 50.986656,336.367371 
	C51.014458,348.865417 51.003124,361.363586 50.987705,373.861694 
	C50.984085,376.796173 52.418915,378.077026 55.321480,378.014587 
	C58.652611,377.942902 61.986656,378.010986 65.319435,378.011047 
	C191.634644,378.013580 317.949860,378.016052 444.265076,378.014740 
	C450.828278,378.014679 451.000885,377.836853 451.007477,371.280975 
	C451.017853,360.949127 451.014374,350.617279 451.014252,340.285431 
	C451.014160,332.391815 451.012421,332.381622 442.952789,332.381165 
	C332.801910,332.374817 222.651062,332.371490 111.500175,332.367401 
M226.500000,178.999649 
	C270.007782,178.999649 313.515594,178.999649 357.023376,178.999649 
	C357.172943,178.473221 357.322479,177.946777 357.472046,177.420349 
	C356.112701,176.377151 354.814056,175.241455 353.385193,174.304199 
	C310.514160,146.183167 267.553497,118.197441 224.836807,89.844078 
	C218.886459,85.894508 214.618973,86.006157 208.764175,89.887146 
	C166.032364,118.212921 123.089340,146.220047 80.222603,174.342407 
	C78.781212,175.288010 77.441719,176.388962 76.054726,177.417496 
	C76.188988,177.944885 76.323242,178.472260 76.457504,178.999649 
	C126.138336,178.999649 175.819168,178.999649 226.500000,178.999649 
M294.550354,65.857162 
	C341.778931,97.069374 389.004974,128.285370 436.247406,159.476624 
	C437.759155,160.474747 439.363373,161.625122 441.065887,161.940002 
	C442.215027,162.152542 444.209747,161.349838 444.734955,160.398727 
	C445.281311,159.409210 444.866638,157.496552 444.220978,156.356339 
	C443.625000,155.303940 442.192169,154.700439 441.082764,153.967560 
	C426.914276,144.607605 412.738159,135.259232 398.562988,125.909386 
	C363.124573,102.534424 327.660736,79.197845 292.286682,55.725853 
	C288.854553,53.448490 286.131531,53.427246 282.767181,55.687969 
	C274.477631,61.258213 265.939484,66.459473 257.673309,72.062881 
	C255.184845,73.749741 253.446014,73.621933 251.074860,72.012703 
	C242.808380,66.402481 234.409149,60.987907 226.062775,55.495331 
	C218.081268,50.242855 218.123291,50.303364 210.298538,55.399948 
	C189.651764,68.848038 168.969330,82.241409 148.285706,95.632797 
	C147.385849,96.215401 146.333313,96.562195 144.628906,97.355232 
	C144.628906,90.904045 144.480225,85.115417 144.676117,79.338486 
	C144.831787,74.748024 143.199066,72.595802 138.321671,72.736366 
	C130.163635,72.971497 121.993729,72.766678 113.829247,72.816208 
	C108.130585,72.850777 107.172852,73.782524 107.145439,79.539474 
	C107.085129,92.203033 106.989296,104.869041 107.191628,117.529518 
	C107.248260,121.073105 106.283791,123.213661 103.171669,125.176086 
	C88.667633,134.321930 74.346451,143.757858 59.966042,153.099518 
	C57.735092,154.548752 55.268688,155.780533 53.427223,157.627411 
	C52.398655,158.658997 52.432468,160.749863 51.987556,162.363388 
	C53.738209,162.830826 55.572941,163.856979 57.216045,163.609711 
	C58.882984,163.358856 60.383507,161.885635 61.917953,160.887848 
	C112.586708,127.940155 163.270065,95.014771 213.868423,61.959278 
	C216.961533,59.938576 219.124557,59.803135 222.255478,61.850082 
	C268.797699,92.278625 315.421753,122.581993 362.025299,152.916748 
	C367.186859,156.276459 372.193756,159.918503 377.587280,162.850296 
	C379.241608,163.749557 381.945801,162.717331 384.169250,162.569595 
	C383.381409,160.698044 382.773102,158.717819 381.732727,156.999130 
	C381.183380,156.091629 379.893768,155.620331 378.916840,154.985275 
	C344.020782,132.302002 309.120514,109.625153 274.226013,86.939445 
	C270.082031,84.245346 265.967560,81.505898 261.313782,78.441345 
	C268.256226,73.889793 274.894897,70.036186 280.943787,65.411171 
	C285.637390,61.822422 289.613342,61.320030 294.550354,65.857162 
M278.273529,263.789490 
	C280.055145,259.993896 281.836792,256.198334 284.014893,251.558075 
	C279.299164,251.558075 275.620239,251.924942 272.044342,251.474365 
	C266.302002,250.750839 262.395233,252.455643 260.717468,258.249817 
	C260.659668,258.449341 260.195435,258.531158 259.117310,259.067505 
	C253.302322,253.099930 247.237045,246.967606 241.307037,240.707153 
	C240.206589,239.545380 239.014908,237.872528 239.003448,236.426514 
	C238.988785,234.578583 239.723206,231.540680 240.867569,231.147278 
	C242.551147,230.568527 244.960709,231.676834 246.908676,232.450195 
	C248.091599,232.919830 248.953415,234.809769 250.018280,234.861969 
	C255.294662,235.120667 260.590637,234.979874 265.841248,234.979874 
	C266.156372,226.644485 261.919983,219.440033 253.994446,217.459503 
	C247.916931,215.940781 241.027313,215.376221 234.951050,216.611511 
	C220.987686,219.450226 215.765945,232.716705 222.803848,245.157669 
	C223.185150,245.831696 223.420456,246.588303 223.750381,247.369568 
	C222.445908,248.271362 221.345810,249.010025 220.268280,249.780258 
	C212.769943,255.140198 209.751602,262.502014 211.007233,271.507233 
	C212.157089,279.753754 217.384827,284.980469 224.851303,287.755768 
	C234.567978,291.367462 244.515915,291.107574 254.145157,287.396973 
	C258.897156,285.565796 263.308716,282.329895 267.210785,288.498779 
	C267.355072,288.726929 267.785217,288.887909 268.082733,288.888824 
	C275.095245,288.910339 282.107849,288.905487 289.780426,288.905487 
	C286.052002,285.057587 283.098999,281.911957 280.039856,278.873108 
	C273.546570,272.422913 273.523926,272.445709 278.273529,263.789490 
M315.701477,255.499847 
	C315.701477,266.565674 315.701477,277.631470 315.701477,288.582214 
	C322.896912,288.582214 329.273956,288.582214 336.058594,288.582214 
	C336.058594,280.562622 336.058594,272.967255 336.058594,265.229919 
	C341.900696,264.820374 347.405579,264.878052 352.748108,263.975159 
	C367.621521,261.461517 375.726959,248.589722 371.943634,234.043716 
	C369.774353,225.703278 364.356049,219.487015 356.154419,218.449265 
	C342.935425,216.776688 329.486816,216.918854 315.701447,216.274155 
	C315.701447,229.911438 315.701447,242.205643 315.701477,255.499847 
M127.968956,257.500000 
	C127.968956,267.911835 127.968956,278.323669 127.968956,288.751038 
	C134.996155,288.751038 141.258972,288.751038 148.086456,288.751038 
	C148.086456,280.780487 148.086456,273.052185 148.086456,265.575256 
	C155.231750,264.733551 161.938873,264.591797 168.305573,263.047028 
	C178.816376,260.496796 184.977509,251.775314 185.001419,240.970749 
	C185.026566,229.605850 179.183044,220.094406 168.393356,218.495804 
	C155.238052,216.546753 141.739395,216.915054 127.968956,216.261108 
	C127.968956,230.574554 127.968956,243.537277 127.968956,257.500000 
M117.372032,421.191162 
	C120.295731,426.376648 123.263878,431.480042 130.857330,428.311127 
	C130.857330,418.631805 130.857330,408.876678 130.857330,398.918488 
	C128.073837,398.918488 125.536674,398.918488 122.318489,398.918488 
	C122.318489,403.958069 122.318489,408.606750 122.318489,413.255463 
	C119.084755,410.174835 116.587936,407.048065 114.836311,403.548279 
	C112.231537,398.343903 108.342522,397.560333 103.323898,399.072815 
	C103.323898,409.060638 103.323898,418.940430 103.323898,428.691711 
	C106.163536,428.691711 108.582108,428.691711 111.793839,428.691711 
	C111.793839,423.750641 111.793839,419.141907 111.793839,414.533173 
	C112.134438,414.500763 112.475029,414.468323 112.815628,414.435913 
	C114.204025,416.484406 115.592422,418.532898 117.372032,421.191162 
M170.684402,423.983582 
	C175.511337,416.761566 175.491608,408.971832 170.631958,403.293091 
	C166.107086,398.005402 158.021637,396.507690 151.477753,399.745056 
	C145.363663,402.769775 141.865768,410.126404 143.298737,416.946808 
	C144.865723,424.405121 150.296265,428.557556 159.217361,429.303467 
	C160.379013,429.400635 162.051590,429.872192 162.520660,430.710999 
	C165.479401,436.002106 169.860794,433.918823 174.652664,433.694092 
	C173.144638,431.630890 171.868820,430.279388 171.084991,428.685852 
	C170.479874,427.455627 170.491837,425.921875 170.684402,423.983582 
M235.587540,475.486938 
	C235.587540,479.901062 235.587540,484.315186 235.587540,488.952271 
	C240.812668,488.952271 245.299713,489.190491 249.752167,488.899506 
	C257.504547,488.392853 262.787415,482.924103 263.546875,475.056427 
	C264.271942,467.545044 259.904510,460.530579 252.801514,459.284637 
	C247.356583,458.329590 241.693726,458.616882 235.588409,458.325867 
	C235.588409,464.278839 235.588409,469.387512 235.587540,475.486938 
M442.134094,411.209137 
	C440.161774,402.604767 434.592041,397.923950 426.482635,398.055603 
	C418.836487,398.179718 411.839081,403.817627 411.071991,411.129517 
	C410.451599,417.043091 413.441223,425.569275 420.807465,428.306305 
	C432.102112,432.503052 442.438843,424.771912 442.134094,411.209137 
M323.138092,473.416199 
	C326.100464,466.307678 323.751984,460.058502 317.071472,459.149170 
	C311.579376,458.401642 305.904541,458.996704 300.258972,458.996704 
	C300.258972,469.016663 300.258972,478.882568 300.258972,488.783569 
	C303.069611,488.783569 305.502258,488.783569 308.166016,488.783569 
	C308.387817,485.544617 308.595001,482.518890 308.900238,478.061157 
	C313.179749,484.060638 314.442780,492.776184 324.136261,488.097687 
	C322.291809,484.718170 320.347656,481.156006 318.449982,477.678986 
	C319.976990,476.375854 321.358276,475.197052 323.138092,473.416199 
M195.740082,401.265350 
	C195.733887,405.758850 195.785934,410.253479 195.701462,414.745514 
	C195.643173,417.844238 195.402145,421.005890 191.155548,421.094543 
	C186.774689,421.186035 186.653702,417.985992 186.624496,414.878357 
	C186.575027,409.615112 186.610901,404.351074 186.610901,398.888245 
	C183.360168,398.888245 180.818771,398.888245 178.084579,398.888245 
	C178.084579,405.613495 177.783676,411.943756 178.166397,418.232422 
	C178.576172,424.965820 183.159958,428.906372 190.059250,429.251740 
	C197.244400,429.611389 203.164810,425.976837 203.774384,419.690704 
	C204.440155,412.824799 203.925720,405.844452 203.925720,397.569153 
	C200.763168,398.677429 198.275406,399.549194 195.740082,401.265350 
M222.261078,477.040161 
	C221.893219,480.103241 219.885559,481.951935 217.200150,480.863220 
	C215.458618,480.157166 213.582153,477.543701 213.408173,475.635193 
	C212.904175,470.106964 213.229767,464.503082 213.229767,458.848297 
	C210.001434,458.848297 207.589859,458.848297 204.942505,458.848297 
	C204.942505,465.652130 204.659073,472.131500 205.021667,478.574493 
	C205.389282,485.106934 210.259399,489.108093 217.155411,489.265686 
	C224.525345,489.434082 230.252808,485.429932 230.754562,478.885590 
	C231.258286,472.315399 230.865311,465.676453 230.865311,458.885986 
	C227.969162,458.885986 225.429504,458.885986 222.364822,458.885986 
	C222.364822,464.885406 222.364822,470.505920 222.261078,477.040161 
M145.803345,473.218719 
	C143.958405,478.305450 142.113480,483.392151 140.070999,489.023529 
	C144.351639,488.411682 148.409714,491.051117 150.912415,485.378479 
	C151.507584,484.029449 160.374039,483.959656 161.151489,485.485077 
	C164.006363,491.086548 167.818451,488.501373 171.940796,488.748505 
	C168.501801,479.271606 165.392410,470.321564 161.912750,461.517822 
	C161.379562,460.168854 159.259903,458.987366 157.663712,458.604065 
	C152.825027,457.442108 149.867355,459.354950 148.874405,464.491272 
	C148.344391,467.232941 147.010193,469.819122 145.803345,473.218719 
M268.831421,479.293976 
	C267.773621,482.350006 266.715820,485.406036 265.518097,488.866302 
	C269.899811,488.708771 273.744965,490.640289 276.267548,485.242950 
	C276.892670,483.905426 285.622986,483.958649 286.446777,485.544403 
	C289.343170,491.119995 293.100739,488.416473 297.215851,488.733063 
	C293.796753,479.367828 290.359558,470.728302 287.544830,461.890564 
	C286.284973,457.934784 283.646606,458.664062 280.914185,458.468628 
	C277.977356,458.258606 275.956726,458.785797 274.943268,462.127075 
	C273.258514,467.681702 271.041870,473.075012 268.831421,479.293976 
M79.047760,420.437439 
	C79.047760,423.197021 79.047760,425.956604 79.047760,428.679718 
	C86.034882,428.679718 92.276604,428.679718 98.833153,428.679718 
	C98.725754,426.386841 98.636391,424.478973 98.524429,422.088715 
	C95.761444,422.088715 93.459831,422.014191 91.164772,422.105072 
	C87.075172,422.267029 87.598518,419.926208 88.222336,417.115204 
	C91.234894,416.972137 94.002319,416.840698 96.875061,416.704254 
	C96.875061,414.425262 96.875061,412.406769 96.875061,410.129578 
	C94.428749,410.129578 92.397781,410.362000 90.463455,410.030487 
	C89.512215,409.867462 88.739922,408.660217 87.886650,407.925537 
	C88.680794,407.107300 89.401848,405.691284 90.282860,405.583588 
	C92.869888,405.267303 95.520470,405.470856 98.480400,405.470856 
	C98.480400,402.941010 98.480400,401.035126 98.480400,398.804810 
	C92.076805,398.804810 85.835327,398.804810 79.043983,398.804810 
	C79.043983,405.879639 79.043983,412.665466 79.047760,420.437439 
M191.962906,484.528625 
	C192.784927,481.224670 193.195801,477.744324 194.520874,474.656250 
	C196.767929,469.419495 199.591797,464.430237 202.118271,459.445404 
	C191.735046,454.790771 191.115891,464.023071 187.594070,469.582764 
	C185.815735,465.853699 185.093491,461.984772 182.766510,460.138855 
	C180.553238,458.383209 176.663132,458.741425 172.759399,458.034149 
	C176.782410,469.174011 185.290176,477.145111 183.030075,489.674530 
	C186.565186,487.521881 191.679443,492.451691 191.962906,484.528625 
M69.206345,427.535767 
	C68.781563,427.763702 68.376801,428.047180 67.928139,428.208862 
	C66.700668,428.651123 65.466042,429.098938 64.195915,429.352173 
	C64.087143,429.373840 63.273258,427.519867 63.505356,427.301788 
	C64.502968,426.364349 65.680504,425.412750 66.960373,425.034790 
	C68.472595,424.588226 70.157715,424.727173 71.928207,424.600891 
	C71.928207,421.696289 71.928207,419.113403 71.928207,416.738800 
	C67.200684,414.095978 64.704269,418.083038 61.387032,419.505371 
	C55.837837,421.884735 53.683048,425.511078 55.135029,430.759216 
	C56.416233,435.390137 61.496414,437.888000 67.794128,436.983582 
	C72.855339,436.256683 75.493927,433.118103 75.391182,427.479797 
	C73.603027,427.479797 71.804558,427.479797 69.206345,427.535767 
M342.869934,468.755066 
	C341.620209,468.896881 340.370483,469.038696 338.988556,469.195557 
	C338.988556,471.221283 339.065430,472.876129 338.973785,474.521606 
	C338.722412,479.036194 343.687256,478.779938 344.150085,477.811310 
	C346.206268,473.507874 351.213409,474.730560 353.619385,471.832764 
	C354.826447,470.378967 355.887268,468.456360 356.142609,466.624298 
	C356.938873,460.911438 353.357239,456.983002 347.190643,456.307800 
	C340.535126,455.579041 336.191437,458.901276 335.291748,466.630035 
	C338.519257,465.743378 341.271912,464.852386 344.089478,464.282043 
	C345.157745,464.065796 346.375549,464.588135 347.525177,464.773804 
	C347.200287,465.777985 347.128937,467.020233 346.475586,467.716003 
	C345.882782,468.347321 344.656281,468.383606 342.869934,468.755066 
M347.085419,487.386169 
	C346.663483,485.372772 346.855865,482.296570 345.667236,481.609528 
	C344.110229,480.709564 341.210785,481.185883 339.390961,482.085724 
	C338.480103,482.536133 337.939087,486.322937 338.520599,486.722198 
	C340.334045,487.967407 342.743439,488.394745 344.969513,488.946716 
	C345.414001,489.056885 346.069489,488.316010 347.085419,487.386169 
M66.168846,412.597839 
	C69.652908,413.366669 72.646049,412.909668 73.035271,408.672852 
	C73.346115,405.289215 70.913986,403.872131 67.984367,404.185272 
	C66.452438,404.348999 64.055199,405.676453 63.849960,406.805695 
	C63.548138,408.466370 64.857384,410.419861 66.168846,412.597839 
z"/>
<path fill="#FEF7F7" opacity="1.000000" stroke="none" 
	d="
M112.000183,332.367432 
	C222.651062,332.371490 332.801910,332.374817 442.952789,332.381165 
	C451.012421,332.381622 451.014160,332.391815 451.014252,340.285431 
	C451.014374,350.617279 451.017853,360.949127 451.007477,371.280975 
	C451.000885,377.836853 450.828278,378.014679 444.265076,378.014740 
	C317.949860,378.016052 191.634644,378.013580 65.319435,378.011047 
	C61.986656,378.010986 58.652611,377.942902 55.321480,378.014587 
	C52.418915,378.077026 50.984085,376.796173 50.987705,373.861694 
	C51.003124,361.363586 51.014458,348.865417 50.986656,336.367371 
	C50.977802,332.387970 53.754169,332.404510 56.508457,332.400513 
	C72.339439,332.377625 88.170441,332.375977 104.001442,332.367554 
	C106.501022,332.366211 109.000595,332.367371 112.000183,332.367432 
M367.177185,363.046112 
	C367.177185,356.780640 367.177185,350.515198 367.177185,344.279449 
	C362.177643,343.189667 363.317780,346.527374 363.202972,348.695465 
	C363.068970,351.227142 363.171722,353.771332 363.171722,356.310089 
	C360.132019,354.045044 358.401093,351.447876 356.370483,349.111206 
	C354.438110,346.887634 353.501373,342.812195 348.918396,344.299316 
	C348.918396,351.255524 348.918396,357.963440 348.918396,364.724792 
	C353.582184,365.739960 352.606049,362.535767 352.686127,360.305908 
	C352.776947,357.777283 352.707062,355.242889 352.707062,352.710999 
	C356.582947,356.026520 359.042725,359.744720 362.036926,362.966217 
	C362.975647,363.976196 365.352753,363.649261 367.177185,363.046112 
M122.742546,343.610260 
	C115.261734,344.967651 111.207474,349.767303 112.229912,356.055695 
	C113.212067,362.096313 118.475998,365.842377 124.993095,365.138550 
	C130.584305,364.534698 134.807083,359.928131 134.809235,354.430298 
	C134.811554,348.505371 130.745834,344.604675 122.742546,343.610260 
M142.422668,344.007263 
	C142.058350,350.631866 141.658188,357.255249 141.437866,363.884644 
	C141.427094,364.208771 143.098160,364.996124 143.789734,364.815643 
	C144.415344,364.652344 145.149200,363.475433 145.182495,362.716858 
	C145.331589,359.319855 145.247375,355.912628 145.247375,352.147552 
	C151.387680,355.545441 151.906494,364.196106 159.746979,365.175568 
	C159.746979,357.697723 159.746979,350.953552 159.746979,343.091125 
	C152.909912,346.461670 158.158020,352.780945 154.963242,356.655060 
	C152.624039,353.581879 150.481964,350.478241 148.021179,347.652130 
	C146.715179,346.152283 144.856155,345.133972 142.422668,344.007263 
M323.530304,345.929077 
	C319.192291,350.488373 318.198730,354.742584 320.623505,359.352875 
	C322.966034,363.806915 326.848877,365.566467 331.773895,365.179718 
	C336.804138,364.784790 340.091736,362.075562 341.541962,357.330139 
	C342.822296,353.140839 341.693787,349.340912 338.438110,346.504761 
	C334.032196,342.666656 329.125916,342.733307 323.530304,345.929077 
M375.173004,350.623535 
	C375.173004,355.237274 375.173004,359.851044 375.173004,364.736938 
	C380.781738,364.736938 385.820496,364.736938 390.859253,364.736938 
	C391.071777,364.338013 391.284302,363.939087 391.496826,363.540161 
	C390.479645,362.799530 389.552429,361.675537 388.423645,361.410675 
	C386.846680,361.040680 385.038971,361.621704 383.479828,361.217621 
	C382.053406,360.847900 380.826050,359.709900 379.510925,358.910461 
	C380.907166,357.996674 382.206329,356.823578 383.730988,356.252991 
	C384.903473,355.814240 386.405365,356.332123 387.672424,356.040588 
	C388.414337,355.869873 388.982971,354.946136 389.629547,354.361084 
	C388.949585,353.803925 388.325165,352.875214 387.578583,352.763641 
	C385.784241,352.495483 383.874908,352.866241 382.126709,352.471283 
	C381.139313,352.248230 380.379028,351.019928 379.516449,350.244415 
	C380.400818,349.328156 381.154907,347.862793 382.197968,347.615356 
	C384.093201,347.165680 386.202637,347.673706 388.139191,347.322144 
	C389.249207,347.120636 390.194855,346.013763 391.214539,345.314514 
	C391.002533,344.974609 390.790558,344.634705 390.578552,344.294800 
	C385.559967,344.294800 380.541412,344.294800 375.175049,344.294800 
	C375.175049,346.383942 375.175049,348.024536 375.173004,350.623535 
M226.920654,364.929535 
	C226.193649,362.681488 225.466660,360.433411 224.651886,357.913971 
	C227.567276,355.234070 229.605835,351.611847 226.994537,347.630310 
	C222.953629,341.468933 216.640625,344.537781 210.614777,343.863556 
	C210.614777,349.296906 210.410950,354.088898 210.709137,358.849426 
	C210.839233,360.926300 211.998108,362.938690 212.689789,364.980377 
	C213.722824,363.231995 214.755875,361.483582 216.171661,359.087372 
	C218.427948,358.262238 220.559708,358.971039 222.196304,362.093689 
	C222.882889,363.403656 224.808456,364.064240 226.920654,364.929535 
M403.737244,365.114349 
	C405.061615,365.065369 406.721893,365.502777 407.641541,364.867706 
	C409.654633,363.477600 412.637085,361.613586 412.731110,359.812958 
	C412.840515,357.718262 410.567902,355.212769 408.809113,353.386169 
	C406.986267,351.493011 404.540863,350.199371 402.367767,348.643524 
	C405.272552,348.403473 408.177368,348.163452 412.195374,347.831421 
	C411.744812,346.974701 411.240265,344.782745 410.404938,344.648468 
	C407.393402,344.164337 404.090729,343.748688 401.259277,344.563171 
	C399.648224,345.026550 397.894073,347.872650 397.769745,349.749512 
	C397.662537,351.367371 399.467285,353.514801 400.987366,354.722412 
	C402.459869,355.892212 404.730774,355.998993 406.484924,356.897095 
	C407.352936,357.341553 407.847290,358.515778 408.510681,359.359863 
	C407.499939,360.023621 406.412811,361.335571 405.493073,361.227173 
	C402.938354,360.926086 400.453278,360.034302 397.889954,359.362579 
	C396.185089,362.812286 396.487885,363.175842 403.737244,365.114349 
M176.969727,347.581665 
	C179.095688,347.852692 182.147751,350.823639 182.625977,344.594513 
	C179.178925,344.352051 175.676346,343.411346 172.562408,344.137421 
	C170.576431,344.600464 168.145309,347.369507 167.820145,349.408630 
	C167.559174,351.045105 169.897797,353.440979 171.585373,354.930542 
	C172.857285,356.053192 175.021088,356.099396 176.598953,356.967987 
	C177.444778,357.433594 177.891632,358.623932 178.518539,359.487213 
	C177.622620,360.090271 176.649612,361.291107 175.844818,361.187347 
	C173.136856,360.838196 170.488770,360.024719 166.290390,359.025299 
	C167.249039,361.024902 167.547867,362.951202 168.473846,363.325348 
	C170.860916,364.289886 173.510880,364.927948 176.082565,365.031311 
	C179.486938,365.168213 182.354904,363.762115 183.030396,359.986053 
	C183.719574,356.133484 181.381271,354.239532 178.114990,352.996704 
	C175.957123,352.175568 173.885849,351.126953 171.775787,350.180176 
	C171.849503,349.628723 171.923218,349.077271 171.996933,348.525787 
	C173.414520,348.146515 174.832092,347.767242 176.969727,347.581665 
M244.469421,365.215485 
	C250.850555,364.421570 253.101669,362.157990 253.317352,356.077026 
	C253.429306,352.921295 253.474075,349.744751 253.212723,346.605591 
	C253.135269,345.675507 251.912384,344.840790 251.214355,343.962372 
	C250.545547,344.887085 249.384430,345.769165 249.299881,346.744537 
	C249.042282,349.716339 249.162338,352.724640 249.205750,355.717712 
	C249.253799,359.029175 247.948654,361.333527 244.429749,361.440857 
	C240.708969,361.554321 239.069641,359.313934 239.059937,355.742523 
	C239.049652,351.949921 239.057617,348.157227 239.057617,344.364594 
	C238.535034,344.086853 238.012451,343.809113 237.489868,343.531372 
	C236.638779,344.650116 235.147476,345.708038 235.034592,346.896851 
	C233.762222,360.296875 235.584076,364.024994 244.469421,365.215485 
M290.081268,344.450073 
	C289.351929,344.843048 288.548737,345.141388 287.904907,345.643951 
	C282.990356,349.480164 281.928772,355.823883 285.342255,360.705139 
	C288.514282,365.241150 295.450317,366.753906 300.005310,363.727661 
	C300.891693,363.138763 301.271118,361.786926 301.884399,360.787018 
	C300.779968,360.598541 299.662476,360.207581 298.574738,360.277771 
	C297.455353,360.350006 296.168396,361.410339 295.299927,361.093170 
	C292.973816,360.243744 289.737885,359.396637 288.903961,357.600891 
	C287.932922,355.510010 288.225250,351.653534 289.641541,349.969757 
	C291.013123,348.339111 294.481964,348.258972 297.081696,347.976288 
	C298.177002,347.857208 299.405731,348.965576 300.573822,349.515991 
	C301.017548,349.295380 301.461273,349.074768 301.905029,348.854126 
	C301.407318,347.630005 301.113525,345.505096 300.376465,345.338226 
	C297.246216,344.629608 293.984497,344.501678 290.081268,344.450073 
M93.349571,351.335236 
	C96.701431,345.849335 101.104012,346.815063 106.414223,349.252014 
	C106.445274,347.547577 106.225143,345.871796 105.288200,345.208282 
	C101.077866,342.226776 94.240936,343.485443 90.849655,347.603455 
	C87.468163,351.709564 87.629456,357.844116 91.222687,361.789642 
	C94.705643,365.614075 101.239243,366.481079 105.349625,363.519135 
	C106.132828,362.954773 106.486023,361.793610 107.037605,360.907776 
	C105.942863,360.642609 104.706680,359.906586 103.775658,360.186340 
	C95.987022,362.526184 92.619659,360.039246 93.349571,351.335236 
M260.700775,359.606689 
	C265.018494,365.417542 271.949799,367.105408 276.603027,363.349213 
	C277.288300,362.796082 277.411499,361.546631 277.794769,360.619354 
	C276.821594,360.433167 275.830872,360.039124 274.880188,360.119415 
	C273.933441,360.199371 272.871765,361.246826 272.131042,361.013000 
	C269.624115,360.221497 266.053650,359.666718 265.113495,357.862579 
	C264.017303,355.759003 264.340332,351.737671 265.769348,349.856262 
	C266.988129,348.251678 270.624390,348.280945 273.233704,348.031281 
	C274.325989,347.926788 275.527985,348.968811 276.680084,349.489563 
	C277.123718,349.157166 277.567383,348.824768 278.011017,348.492371 
	C277.272644,347.279785 276.822296,345.511536 275.744873,344.953003 
	C271.586578,342.797302 267.276978,343.019196 263.560394,345.949402 
	C259.253052,349.345276 258.430145,353.871399 260.700775,359.606689 
M192.623810,347.739166 
	C193.138748,349.160034 194.001694,350.557709 194.098251,352.006470 
	C194.318420,355.310272 193.985962,358.653870 194.261719,361.949249 
	C194.351334,363.020203 195.632004,363.991455 196.367905,365.008331 
	C197.071945,363.970795 198.330978,362.960632 198.383759,361.890961 
	C198.609695,357.312500 198.480011,352.716461 198.480011,348.099579 
	C200.009857,347.836792 200.870270,347.844482 201.589996,347.530090 
	C202.761459,347.018341 203.841003,346.296143 204.959335,345.662750 
	C203.698349,345.049072 202.472061,344.012787 201.169479,343.905792 
	C198.038101,343.648621 194.856445,343.652679 191.725082,343.912659 
	C190.402451,344.022461 189.155304,345.041290 187.873840,345.646942 
	C189.160095,346.300598 190.446350,346.954254 192.623810,347.739166 
M308.999176,356.447510 
	C309.009674,358.593292 308.843140,360.762543 309.123077,362.872559 
	C309.226288,363.650665 310.382080,364.289124 311.057770,364.991241 
	C311.740692,364.295807 312.995483,363.616699 313.015930,362.902313 
	C313.176331,357.295105 313.173706,351.678986 313.007233,346.071960 
	C312.985657,345.345337 311.741333,344.655029 311.063385,343.947906 
	C310.383820,344.652863 309.172546,345.318787 309.117401,346.069580 
	C308.888428,349.189514 309.008087,352.335052 308.999176,356.447510 
z"/>
<path fill="#FFFDFD" opacity="1.000000" stroke="none" 
	d="
M226.000000,178.999649 
	C175.819168,178.999649 126.138336,178.999649 76.457504,178.999649 
	C76.323242,178.472260 76.188988,177.944885 76.054726,177.417496 
	C77.441719,176.388962 78.781212,175.288010 80.222603,174.342407 
	C123.089340,146.220047 166.032364,118.212921 208.764175,89.887146 
	C214.618973,86.006157 218.886459,85.894508 224.836807,89.844078 
	C267.553497,118.197441 310.514160,146.183167 353.385193,174.304199 
	C354.814056,175.241455 356.112701,176.377151 357.472046,177.420349 
	C357.322479,177.946777 357.172943,178.473221 357.023376,178.999649 
	C313.515594,178.999649 270.007782,178.999649 226.000000,178.999649 
z"/>
<path fill="#FEF2F1" opacity="1.000000" stroke="none" 
	d="
M294.243347,65.657516 
	C289.613342,61.320030 285.637390,61.822422 280.943787,65.411171 
	C274.894897,70.036186 268.256226,73.889793 261.313782,78.441345 
	C265.967560,81.505898 270.082031,84.245346 274.226013,86.939445 
	C309.120514,109.625153 344.020782,132.302002 378.916840,154.985275 
	C379.893768,155.620331 381.183380,156.091629 381.732727,156.999130 
	C382.773102,158.717819 383.381409,160.698044 384.169250,162.569595 
	C381.945801,162.717331 379.241608,163.749557 377.587280,162.850296 
	C372.193756,159.918503 367.186859,156.276459 362.025299,152.916748 
	C315.421753,122.581993 268.797699,92.278625 222.255478,61.850082 
	C219.124557,59.803135 216.961533,59.938576 213.868423,61.959278 
	C163.270065,95.014771 112.586708,127.940155 61.917953,160.887848 
	C60.383507,161.885635 58.882984,163.358856 57.216045,163.609711 
	C55.572941,163.856979 53.738209,162.830826 51.987553,162.363388 
	C52.432468,160.749863 52.398655,158.658997 53.427223,157.627411 
	C55.268688,155.780533 57.735092,154.548752 59.966042,153.099518 
	C74.346451,143.757858 88.667633,134.321930 103.171669,125.176086 
	C106.283791,123.213661 107.248260,121.073105 107.191628,117.529518 
	C106.989296,104.869041 107.085129,92.203033 107.145439,79.539474 
	C107.172852,73.782524 108.130585,72.850777 113.829247,72.816208 
	C121.993729,72.766678 130.163635,72.971497 138.321671,72.736366 
	C143.199066,72.595802 144.831787,74.748024 144.676117,79.338486 
	C144.480225,85.115417 144.628906,90.904045 144.628906,97.355232 
	C146.333313,96.562195 147.385849,96.215401 148.285706,95.632797 
	C168.969330,82.241409 189.651764,68.848038 210.298538,55.399948 
	C218.123291,50.303364 218.081268,50.242855 226.062775,55.495331 
	C234.409149,60.987907 242.808380,66.402481 251.074860,72.012703 
	C253.446014,73.621933 255.184845,73.749741 257.673309,72.062881 
	C265.939484,66.459473 274.477631,61.258213 282.767181,55.687969 
	C286.131531,53.427246 288.854553,53.448490 292.286682,55.725853 
	C327.660736,79.197845 363.124573,102.534424 398.562988,125.909386 
	C412.738159,135.259232 426.914276,144.607605 441.082764,153.967560 
	C442.192169,154.700439 443.625000,155.303940 444.220978,156.356339 
	C444.866638,157.496552 445.281311,159.409210 444.734955,160.398727 
	C444.209747,161.349838 442.215027,162.152542 441.065887,161.940002 
	C439.363373,161.625122 437.759155,160.474747 436.247406,159.476624 
	C389.004974,128.285370 341.778931,97.069374 294.243347,65.657516 
M114.734619,115.592941 
	C115.496933,115.759689 116.513176,116.328857 116.983154,116.032310 
	C123.164490,112.131897 129.299133,108.154366 135.356903,104.064919 
	C136.184692,103.506088 137.007553,102.246307 137.026947,101.294632 
	C137.168152,94.370323 137.102905,87.441803 137.102905,80.452759 
	C129.309784,80.452759 122.124985,80.452759 114.622284,80.452759 
	C114.622284,92.163460 114.622284,103.457726 114.734619,115.592941 
z"/>
<path fill="#FEF9F9" opacity="1.000000" stroke="none" 
	d="
M278.101562,264.121155 
	C273.523926,272.445709 273.546570,272.422913 280.039856,278.873108 
	C283.098999,281.911957 286.052002,285.057587 289.780426,288.905487 
	C282.107849,288.905487 275.095245,288.910339 268.082733,288.888824 
	C267.785217,288.887909 267.355072,288.726929 267.210785,288.498779 
	C263.308716,282.329895 258.897156,285.565796 254.145157,287.396973 
	C244.515915,291.107574 234.567978,291.367462 224.851303,287.755768 
	C217.384827,284.980469 212.157089,279.753754 211.007233,271.507233 
	C209.751602,262.502014 212.769943,255.140198 220.268280,249.780258 
	C221.345810,249.010025 222.445908,248.271362 223.750381,247.369568 
	C223.420456,246.588303 223.185150,245.831696 222.803848,245.157669 
	C215.765945,232.716705 220.987686,219.450226 234.951050,216.611511 
	C241.027313,215.376221 247.916931,215.940781 253.994446,217.459503 
	C261.919983,219.440033 266.156372,226.644485 265.841248,234.979874 
	C260.590637,234.979874 255.294662,235.120667 250.018280,234.861969 
	C248.953415,234.809769 248.091599,232.919830 246.908676,232.450195 
	C244.960709,231.676834 242.551147,230.568527 240.867569,231.147278 
	C239.723206,231.540680 238.988785,234.578583 239.003448,236.426514 
	C239.014908,237.872528 240.206589,239.545380 241.307037,240.707153 
	C247.237045,246.967606 253.302322,253.099930 259.117310,259.067505 
	C260.195435,258.531158 260.659668,258.449341 260.717468,258.249817 
	C262.395233,252.455643 266.302002,250.750839 272.044342,251.474365 
	C275.620239,251.924942 279.299164,251.558075 284.014893,251.558075 
	C281.836792,256.198334 280.055145,259.993896 278.101562,264.121155 
M246.130722,273.109283 
	C247.035187,272.613708 247.939651,272.118134 247.983078,272.094330 
	C243.850174,267.368805 239.831558,262.773956 235.831116,258.199890 
	C231.495621,260.513123 229.398499,263.543243 230.320557,267.791016 
	C231.217545,271.923309 234.586060,273.592285 238.477859,273.865143 
	C240.746704,274.024200 243.063828,273.494781 246.130722,273.109283 
z"/>
<path fill="#FEFBFA" opacity="1.000000" stroke="none" 
	d="
M315.701477,254.999847 
	C315.701447,242.205643 315.701447,229.911438 315.701447,216.274155 
	C329.486816,216.918854 342.935425,216.776688 356.154419,218.449265 
	C364.356049,219.487015 369.774353,225.703278 371.943634,234.043716 
	C375.726959,248.589722 367.621521,261.461517 352.748108,263.975159 
	C347.405579,264.878052 341.900696,264.820374 336.058594,265.229919 
	C336.058594,272.967255 336.058594,280.562622 336.058594,288.582214 
	C329.273956,288.582214 322.896912,288.582214 315.701477,288.582214 
	C315.701477,277.631470 315.701477,266.565674 315.701477,254.999847 
M335.860321,236.673172 
	C335.860321,240.555878 335.860321,244.438599 335.860321,248.423935 
	C339.855652,248.423935 343.004059,248.718063 346.073395,248.350861 
	C350.071808,247.872498 352.637085,245.239380 351.989014,241.229843 
	C351.570312,238.639511 349.986938,234.793655 348.082611,234.195969 
	C344.424377,233.047760 340.166779,233.793396 336.159485,233.858337 
	C336.054504,233.860031 335.969116,235.071594 335.860321,236.673172 
z"/>
<path fill="#FEFBFB" opacity="1.000000" stroke="none" 
	d="
M127.968956,257.000000 
	C127.968956,243.537277 127.968956,230.574554 127.968956,216.261108 
	C141.739395,216.915054 155.238052,216.546753 168.393356,218.495804 
	C179.183044,220.094406 185.026566,229.605850 185.001419,240.970749 
	C184.977509,251.775314 178.816376,260.496796 168.305573,263.047028 
	C161.938873,264.591797 155.231750,264.733551 148.086456,265.575256 
	C148.086456,273.052185 148.086456,280.780487 148.086456,288.751038 
	C141.258972,288.751038 134.996155,288.751038 127.968956,288.751038 
	C127.968956,278.323669 127.968956,267.911835 127.968956,257.000000 
M157.003830,232.964340 
	C154.095657,232.964340 151.187500,232.964340 148.256424,232.964340 
	C148.256424,238.529617 148.256424,243.403198 148.256424,248.212830 
	C158.034592,249.935867 162.957275,248.372452 164.247940,243.297180 
	C165.582565,238.048965 163.596252,234.851883 157.003830,232.964340 
z"/>
<path fill="#FEF8F7" opacity="1.000000" stroke="none" 
	d="
M117.176422,420.886292 
	C115.592422,418.532898 114.204025,416.484406 112.815628,414.435913 
	C112.475029,414.468323 112.134438,414.500763 111.793839,414.533173 
	C111.793839,419.141907 111.793839,423.750641 111.793839,428.691711 
	C108.582108,428.691711 106.163536,428.691711 103.323898,428.691711 
	C103.323898,418.940430 103.323898,409.060638 103.323898,399.072815 
	C108.342522,397.560333 112.231537,398.343903 114.836311,403.548279 
	C116.587936,407.048065 119.084755,410.174835 122.318489,413.255463 
	C122.318489,408.606750 122.318489,403.958069 122.318489,398.918488 
	C125.536674,398.918488 128.073837,398.918488 130.857330,398.918488 
	C130.857330,408.876678 130.857330,418.631805 130.857330,428.311127 
	C123.263878,431.480042 120.295731,426.376648 117.176422,420.886292 
z"/>
<path fill="#FEF3F2" opacity="1.000000" stroke="none" 
	d="
M170.456924,424.253326 
	C170.491837,425.921875 170.479874,427.455627 171.084991,428.685852 
	C171.868820,430.279388 173.144638,431.630890 174.652664,433.694092 
	C169.860794,433.918823 165.479401,436.002106 162.520660,430.710999 
	C162.051590,429.872192 160.379013,429.400635 159.217361,429.303467 
	C150.296265,428.557556 144.865723,424.405121 143.298737,416.946808 
	C141.865768,410.126404 145.363663,402.769775 151.477753,399.745056 
	C158.021637,396.507690 166.107086,398.005402 170.631958,403.293091 
	C175.491608,408.971832 175.511337,416.761566 170.456924,424.253326 
M163.554916,407.886047 
	C160.442627,405.249176 157.028656,405.048798 154.125259,407.760834 
	C151.128952,410.559601 151.212677,414.305298 152.849686,417.881348 
	C154.350647,421.160248 157.295105,421.649902 160.436371,421.061493 
	C165.352051,420.140717 166.840836,414.827515 163.554916,407.886047 
z"/>
<path fill="#FEF6F6" opacity="1.000000" stroke="none" 
	d="
M235.587982,474.991577 
	C235.588409,469.387512 235.588409,464.278839 235.588409,458.325867 
	C241.693726,458.616882 247.356583,458.329590 252.801514,459.284637 
	C259.904510,460.530579 264.271942,467.545044 263.546875,475.056427 
	C262.787415,482.924103 257.504547,488.392853 249.752167,488.899506 
	C245.299713,489.190491 240.812668,488.952271 235.587540,488.952271 
	C235.587540,484.315186 235.587540,479.901062 235.587982,474.991577 
M249.028366,481.182098 
	C253.955139,479.370422 255.976425,475.833832 254.672577,471.306488 
	C253.429276,466.989288 249.884277,465.404510 244.081360,466.814941 
	C244.081360,470.359100 244.248871,474.002899 244.031418,477.623535 
	C243.837540,480.851349 245.222061,481.823425 249.028366,481.182098 
z"/>
<path fill="#FEF4F3" opacity="1.000000" stroke="none" 
	d="
M442.178528,411.595245 
	C442.438843,424.771912 432.102112,432.503052 420.807465,428.306305 
	C413.441223,425.569275 410.451599,417.043091 411.071991,411.129517 
	C411.839081,403.817627 418.836487,398.179718 426.482635,398.055603 
	C434.592041,397.923950 440.161774,402.604767 442.178528,411.595245 
M433.627228,413.529053 
	C433.356689,409.208557 431.616028,406.049011 426.816956,406.026367 
	C422.742828,406.007141 420.416595,408.288696 419.964203,412.392303 
	C419.444885,417.102997 421.477234,420.447571 425.291382,421.128143 
	C429.884521,421.947693 432.342773,419.928314 433.627228,413.529053 
z"/>
<path fill="#FEF6F5" opacity="1.000000" stroke="none" 
	d="
M322.938843,473.717224 
	C321.358276,475.197052 319.976990,476.375854 318.449982,477.678986 
	C320.347656,481.156006 322.291809,484.718170 324.136261,488.097687 
	C314.442780,492.776184 313.179749,484.060638 308.900238,478.061157 
	C308.595001,482.518890 308.387817,485.544617 308.166016,488.783569 
	C305.502258,488.783569 303.069611,488.783569 300.258972,488.783569 
	C300.258972,478.882568 300.258972,469.016663 300.258972,458.996704 
	C305.904541,458.996704 311.579376,458.401642 317.071472,459.149170 
	C323.751984,460.058502 326.100464,466.307678 322.938843,473.717224 
M315.834839,467.929352 
	C313.584900,467.003113 311.334991,466.076843 308.651428,464.972107 
	C308.651428,468.215820 308.651428,469.963501 308.651428,471.884827 
	C311.828217,471.882050 315.167297,473.232697 315.834839,467.929352 
z"/>
<path fill="#FEF2F2" opacity="1.000000" stroke="none" 
	d="
M404.871216,403.342804 
	C408.852936,409.111816 409.791870,415.279358 406.388031,421.515137 
	C402.969330,427.778046 397.040558,429.364777 390.331482,429.049683 
	C387.531494,428.918182 384.720520,429.020477 381.263977,428.578613 
	C380.613464,418.478302 380.613464,408.815765 380.613464,398.000732 
	C387.938263,398.793274 394.426849,399.495361 400.915436,400.197449 
	C400.915436,400.197449 400.912598,400.125854 401.027039,400.409027 
	C402.036896,401.201172 402.932312,401.710175 403.827698,402.219177 
	C403.827698,402.219177 403.840942,402.135773 403.890381,402.408813 
	C404.250305,402.902191 404.560760,403.122498 404.871216,403.342804 
M388.947235,415.437836 
	C388.947235,417.232330 388.947235,419.026825 388.947235,422.647430 
	C392.822784,420.898132 396.781860,420.347656 398.048950,418.205139 
	C399.423798,415.880371 399.361176,411.416718 397.940765,409.105591 
	C396.632538,406.976990 392.690369,406.467224 388.952515,404.824158 
	C388.952515,409.210510 388.952515,411.846741 388.947235,415.437836 
z"/>
<path fill="#FEF4F3" opacity="1.000000" stroke="none" 
	d="
M195.763855,400.843170 
	C198.275406,399.549194 200.763168,398.677429 203.925720,397.569153 
	C203.925720,405.844452 204.440155,412.824799 203.774384,419.690704 
	C203.164810,425.976837 197.244400,429.611389 190.059250,429.251740 
	C183.159958,428.906372 178.576172,424.965820 178.166397,418.232422 
	C177.783676,411.943756 178.084579,405.613495 178.084579,398.888245 
	C180.818771,398.888245 183.360168,398.888245 186.610901,398.888245 
	C186.610901,404.351074 186.575027,409.615112 186.624496,414.878357 
	C186.653702,417.985992 186.774689,421.186035 191.155548,421.094543 
	C195.402145,421.005890 195.643173,417.844238 195.701462,414.745514 
	C195.785934,410.253479 195.733887,405.758850 195.763855,400.843170 
z"/>
<path fill="#FEF4F4" opacity="1.000000" stroke="none" 
	d="
M222.312958,476.583313 
	C222.364822,470.505920 222.364822,464.885406 222.364822,458.885986 
	C225.429504,458.885986 227.969162,458.885986 230.865311,458.885986 
	C230.865311,465.676453 231.258286,472.315399 230.754562,478.885590 
	C230.252808,485.429932 224.525345,489.434082 217.155411,489.265686 
	C210.259399,489.108093 205.389282,485.106934 205.021667,478.574493 
	C204.659073,472.131500 204.942505,465.652130 204.942505,458.848297 
	C207.589859,458.848297 210.001434,458.848297 213.229767,458.848297 
	C213.229767,464.503082 212.904175,470.106964 213.408173,475.635193 
	C213.582153,477.543701 215.458618,480.157166 217.200150,480.863220 
	C219.885559,481.951935 221.893219,480.103241 222.312958,476.583313 
z"/>
<path fill="#FEF5F4" opacity="1.000000" stroke="none" 
	d="
M145.921143,472.847107 
	C147.010193,469.819122 148.344391,467.232941 148.874405,464.491272 
	C149.867355,459.354950 152.825027,457.442108 157.663712,458.604065 
	C159.259903,458.987366 161.379562,460.168854 161.912750,461.517822 
	C165.392410,470.321564 168.501801,479.271606 171.940796,488.748505 
	C167.818451,488.501373 164.006363,491.086548 161.151489,485.485077 
	C160.374039,483.959656 151.507584,484.029449 150.912415,485.378479 
	C148.409714,491.051117 144.351639,488.411682 140.070999,489.023529 
	C142.113480,483.392151 143.958405,478.305450 145.921143,472.847107 
M158.256454,474.286896 
	C157.651947,472.670166 157.047424,471.053436 156.442917,469.436707 
	C156.084061,469.442261 155.725220,469.447815 155.366379,469.453369 
	C154.569061,471.967926 153.771759,474.482483 152.595154,478.193237 
	C155.284943,476.628296 158.726242,479.960297 158.256454,474.286896 
z"/>
<path fill="#FEF5F4" opacity="1.000000" stroke="none" 
	d="
M268.940308,478.915100 
	C271.041870,473.075012 273.258514,467.681702 274.943268,462.127075 
	C275.956726,458.785797 277.977356,458.258606 280.914185,458.468628 
	C283.646606,458.664062 286.284973,457.934784 287.544830,461.890564 
	C290.359558,470.728302 293.796753,479.367828 297.215851,488.733063 
	C293.100739,488.416473 289.343170,491.119995 286.446777,485.544403 
	C285.622986,483.958649 276.892670,483.905426 276.267548,485.242950 
	C273.744965,490.640289 269.899811,488.708771 265.518097,488.866302 
	C266.715820,485.406036 267.773621,482.350006 268.940308,478.915100 
M280.426971,470.261719 
	C279.741119,472.517700 279.055237,474.773682 278.274261,477.342590 
	C280.611877,477.342590 282.171600,477.342590 285.018250,477.342590 
	C283.373199,474.302124 282.133026,472.009949 280.426971,470.261719 
z"/>
<path fill="#FEF4F3" opacity="1.000000" stroke="none" 
	d="
M351.815186,421.008698 
	C351.815216,421.008698 351.615204,421.136597 351.394073,421.490723 
	C350.713318,422.845581 350.253662,423.846252 349.794037,424.846954 
	C349.794037,424.846954 349.869904,424.859955 349.605652,424.910706 
	C349.174774,425.283875 349.008148,425.606262 348.841492,425.928650 
	C348.841522,425.928650 348.931458,425.928589 348.658569,425.953094 
	C348.182098,426.271790 347.978516,426.565979 347.774933,426.860199 
	C347.774933,426.860199 347.853424,426.864960 347.472839,426.925537 
	C342.239502,429.966095 337.153503,429.496246 331.998566,428.006683 
	C331.998566,428.006683 332.000000,427.999023 331.840393,427.750122 
	C331.149506,427.266266 330.618225,427.031342 330.086975,426.796387 
	C330.086975,426.796387 330.092407,426.901611 330.058167,426.632812 
	C329.717743,426.179260 329.411560,425.994507 329.105377,425.809784 
	C329.105377,425.809784 329.093353,425.903381 329.080017,425.632935 
	C328.775177,425.150940 328.483673,424.939392 328.192169,424.727875 
	C328.192169,424.727875 328.182068,424.842804 328.185608,424.546143 
	C327.817017,423.800262 327.444855,423.351074 327.072693,422.901886 
	C327.072693,422.901886 327.036072,422.961090 327.046692,422.545959 
	C326.604248,414.471588 326.151154,406.812317 325.665680,398.605652 
	C329.203247,398.605652 331.660187,398.605652 334.117126,398.605652 
	C334.117126,398.605652 334.180511,398.845032 334.289886,399.333954 
	C334.756927,406.312317 335.114594,412.801788 335.472290,419.291229 
	C335.472290,419.291229 335.459167,419.455414 335.714905,419.804596 
	C337.984894,420.106079 339.999146,420.058380 342.013367,420.010712 
	C342.013367,420.010712 342.000000,420.000000 342.352173,419.821014 
	C343.083893,412.737061 343.463440,405.832092 343.842987,398.927124 
	C343.842987,398.927124 343.937256,398.911926 344.378998,398.823914 
	C347.241364,398.767822 349.661987,398.799744 352.082611,398.831635 
	C352.082611,398.831635 352.067474,398.913513 352.104095,399.391907 
	C352.032227,406.916443 351.923706,413.962585 351.815186,421.008698 
z"/>
<path fill="#FEF2F2" opacity="1.000000" stroke="none" 
	d="
M79.045868,419.944366 
	C79.043983,412.665466 79.043983,405.879639 79.043983,398.804810 
	C85.835327,398.804810 92.076805,398.804810 98.480400,398.804810 
	C98.480400,401.035126 98.480400,402.941010 98.480400,405.470856 
	C95.520470,405.470856 92.869888,405.267303 90.282860,405.583588 
	C89.401848,405.691284 88.680794,407.107300 87.886650,407.925537 
	C88.739922,408.660217 89.512215,409.867462 90.463455,410.030487 
	C92.397781,410.362000 94.428749,410.129578 96.875061,410.129578 
	C96.875061,412.406769 96.875061,414.425262 96.875061,416.704254 
	C94.002319,416.840698 91.234894,416.972137 88.222336,417.115204 
	C87.598518,419.926208 87.075172,422.267029 91.164772,422.105072 
	C93.459831,422.014191 95.761444,422.088715 98.524429,422.088715 
	C98.636391,424.478973 98.725754,426.386841 98.833153,428.679718 
	C92.276604,428.679718 86.034882,428.679718 79.047760,428.679718 
	C79.047760,425.956604 79.047760,423.197021 79.045868,419.944366 
z"/>
<path fill="#FEF6F6" opacity="1.000000" stroke="none" 
	d="
M285.030945,410.955627 
	C285.030945,412.745880 285.030945,414.536133 285.030945,416.608063 
	C281.783630,416.811371 278.876831,416.993317 276.043854,417.170685 
	C275.459625,421.595154 275.459625,421.595154 286.093445,422.399109 
	C286.203339,424.317871 286.318329,426.325378 286.456848,428.744080 
	C279.801086,428.744080 273.588409,428.744080 267.198761,427.938049 
	C267.015900,417.753906 267.009979,408.375793 267.004089,398.997650 
	C267.004089,398.997650 266.997559,398.999329 267.461731,398.927124 
	C273.974670,398.843170 280.023438,398.831390 286.072235,398.819611 
	C286.072235,398.819611 286.065948,398.926086 286.103607,399.366119 
	C286.144348,401.561462 286.147461,403.316803 286.150543,405.072113 
	C286.150543,405.072113 286.072540,405.064789 285.611877,405.093445 
	C282.688629,405.147949 280.180206,404.910583 277.785858,405.327942 
	C276.814850,405.497192 275.722900,406.990784 275.420837,408.084656 
	C275.280731,408.592072 276.798584,410.070068 277.737762,410.262085 
	C280.116669,410.748383 282.593384,410.756195 285.030945,410.955627 
z"/>
<path fill="#FEFCFC" opacity="1.000000" stroke="none" 
	d="
M307.309662,420.142151 
	C307.252472,421.163086 307.195282,422.184021 307.096008,423.988403 
	C307.112915,425.870422 307.171936,426.969025 307.230957,428.067627 
	C307.230927,428.067627 307.046204,428.038269 306.786316,428.117462 
	C306.306946,428.375031 306.123901,428.585114 305.977264,428.826965 
	C305.977264,428.826965 306.020782,428.978394 305.596558,428.970032 
	C303.448608,428.894409 301.724823,428.827148 299.868744,428.603973 
	C299.542175,428.250885 299.317108,428.099457 298.967529,427.533661 
	C298.840179,417.693054 298.806549,408.312653 298.772888,398.932220 
	C298.772888,398.932220 298.945221,398.921387 299.405823,398.834259 
	C306.604187,399.036469 313.576782,397.363556 319.896667,401.144348 
	C319.896667,401.144348 319.921631,401.066559 319.947632,401.341034 
	C320.274109,401.813141 320.574646,402.010742 320.875183,402.208344 
	C320.875183,402.208344 320.888489,402.112061 320.916077,402.488190 
	C321.400696,405.018951 321.857727,407.173584 322.222107,409.775360 
	C322.106567,410.526062 322.083679,410.829651 322.045898,411.469788 
	C321.342255,413.194733 320.653473,414.583099 319.964691,415.971497 
	C319.964691,415.971497 320.000000,416.000183 319.687622,416.059204 
	C318.567078,416.734497 317.758942,417.350769 316.950806,417.967041 
	C316.950806,417.967072 316.989624,418.004913 316.617188,417.975281 
	C315.516815,418.025970 314.788910,418.106323 313.899963,418.019226 
	C313.142029,418.090485 312.545135,418.329224 311.565308,418.643677 
	C309.891449,419.193634 308.600555,419.667877 307.309662,420.142151 
M307.035553,409.483154 
	C306.926849,412.841095 309.461456,412.409119 311.150970,411.798187 
	C312.346680,411.365753 313.053619,409.581757 313.978729,408.401093 
	C312.674835,407.396332 311.452026,405.802551 310.036621,405.607697 
	C309.187378,405.490753 308.037384,407.558044 307.035553,409.483154 
z"/>
<path fill="#FEF2F2" opacity="1.000000" stroke="none" 
	d="
M191.963104,484.978790 
	C191.679443,492.451691 186.565186,487.521881 183.030075,489.674530 
	C185.290176,477.145111 176.782410,469.174011 172.759399,458.034149 
	C176.663132,458.741425 180.553238,458.383209 182.766510,460.138855 
	C185.093491,461.984772 185.815735,465.853699 187.594070,469.582764 
	C191.115891,464.023071 191.735046,454.790771 202.118271,459.445404 
	C199.591797,464.430237 196.767929,469.419495 194.520874,474.656250 
	C193.195801,477.744324 192.784927,481.224670 191.963104,484.978790 
z"/>
<path fill="#FEF6F6" opacity="1.000000" stroke="none" 
	d="
M356.766998,399.958313 
	C356.821106,399.792847 356.875183,399.627380 357.420166,399.115234 
	C363.971710,398.742676 370.032410,398.716858 376.093079,398.691010 
	C376.093079,398.691010 376.097687,398.894684 376.193604,399.354492 
	C376.210602,401.427826 376.131653,403.041382 376.036133,404.993408 
	C373.889862,405.099365 372.024628,404.908264 370.326447,405.353821 
	C368.580109,405.812012 365.738831,406.688690 365.570068,407.735718 
	C364.986633,411.355621 368.185120,410.044128 370.071594,410.278198 
	C371.518951,410.457764 372.990387,410.443359 374.584839,410.521790 
	C374.584839,412.722870 374.584839,414.596680 374.584839,416.578339 
	C371.311768,416.764648 368.414642,416.929565 365.017426,417.122955 
	C365.744507,425.626709 372.582306,420.322266 375.968262,423.255859 
	C375.968262,424.813477 375.968262,426.897156 375.968262,428.980835 
	C375.968262,428.980835 375.995361,429.003632 375.526184,428.962830 
	C369.045135,428.897369 363.033264,428.872711 357.021423,428.848053 
	C357.021423,428.848053 357.023621,428.988647 357.041107,428.513184 
	C356.961395,418.677948 356.864197,409.318115 356.766998,399.958313 
z"/>
<path fill="#FEF6F6" opacity="1.000000" stroke="none" 
	d="
M228.601105,404.127533 
	C228.289001,404.462921 227.976898,404.798309 226.935120,405.182587 
	C224.065811,405.230408 221.867096,404.937592 219.812057,405.353973 
	C218.816803,405.555603 217.737778,406.979980 217.406509,408.067078 
	C217.261475,408.543091 218.795685,410.047791 219.737564,410.236694 
	C222.122025,410.714874 224.602829,410.712616 227.045044,410.902832 
	C227.045044,410.902802 227.000931,410.954254 226.972672,411.387115 
	C227.001831,413.229309 227.059265,414.638672 227.116699,416.048004 
	C227.116684,416.048004 226.946671,416.371002 226.454987,416.547028 
	C224.464737,416.732483 222.957306,416.851257 221.469360,416.730286 
	C217.445480,416.403107 216.357391,418.125793 217.929352,422.299866 
	C219.586838,422.299866 221.382355,422.291870 223.177765,422.301331 
	C228.602295,422.329926 228.860413,422.704163 227.375992,428.827789 
	C221.335220,428.827789 215.200607,428.827789 209.065979,428.827789 
	C209.065979,428.827789 209.063950,428.945099 209.083496,428.471405 
	C209.075668,418.333984 209.048279,408.670258 209.020905,399.006531 
	C209.020905,399.006531 208.997070,399.002167 209.465973,398.925385 
	C215.981506,398.820099 222.028122,398.791595 228.074753,398.763123 
	C228.158539,398.950562 228.242340,399.138000 228.336243,400.005554 
	C228.431274,401.833008 228.516174,402.980255 228.601105,404.127533 
z"/>
<path fill="#FEF8F7" opacity="1.000000" stroke="none" 
	d="
M255.638397,428.124481 
	C252.970551,428.508789 250.302704,428.893066 247.104218,429.353790 
	C247.104218,421.102966 247.104218,413.569763 247.104218,405.634003 
	C244.293365,405.418488 241.896042,405.234680 239.290497,405.034912 
	C239.290497,402.904083 239.290497,400.986511 240.042313,398.875854 
	C248.236755,398.684784 255.679382,398.686890 263.122009,398.688995 
	C263.122009,398.688995 263.169098,398.849182 263.259399,399.297424 
	C263.307892,401.529480 263.266052,403.313263 263.224243,405.097076 
	C263.224243,405.097076 263.104675,405.064148 262.650208,405.076477 
	C259.782318,405.887634 255.452515,402.985840 255.333847,408.184601 
	C255.182281,414.825439 255.514618,421.477356 255.638397,428.124481 
z"/>
<path fill="#EC4E4F" opacity="1.000000" stroke="none" 
	d="
M376.385559,428.994568 
	C375.968262,426.897156 375.968262,424.813477 375.968262,423.255859 
	C372.582306,420.322266 365.744507,425.626709 365.017426,417.122955 
	C368.414642,416.929565 371.311768,416.764648 374.584839,416.578339 
	C374.584839,414.596680 374.584839,412.722870 374.584839,410.521790 
	C372.990387,410.443359 371.518951,410.457764 370.071594,410.278198 
	C368.185120,410.044128 364.986633,411.355621 365.570068,407.735718 
	C365.738831,406.688690 368.580109,405.812012 370.326447,405.353821 
	C372.024628,404.908264 373.889862,405.099365 376.036133,404.993408 
	C376.131653,403.041382 376.210602,401.427826 376.295410,399.356995 
	C381.800568,398.284668 387.292358,397.326569 392.802399,397.206268 
	C395.368835,397.150238 397.970734,398.718719 400.736023,399.874146 
	C394.426849,399.495361 387.938263,398.793274 380.613464,398.000732 
	C380.613464,408.815765 380.613464,418.478302 380.795013,428.580627 
	C379.585327,429.016357 378.194122,429.012329 376.385559,428.994568 
z"/>
<path fill="#FEF1EF" opacity="1.000000" stroke="none" 
	d="
M69.606216,427.507782 
	C71.804558,427.479797 73.603027,427.479797 75.391182,427.479797 
	C75.493927,433.118103 72.855339,436.256683 67.794128,436.983582 
	C61.496414,437.888000 56.416233,435.390137 55.135029,430.759216 
	C53.683048,425.511078 55.837837,421.884735 61.387032,419.505371 
	C64.704269,418.083038 67.200684,414.095978 71.928207,416.738800 
	C71.928207,419.113403 71.928207,421.696289 71.928207,424.600891 
	C70.157715,424.727173 68.472595,424.588226 66.960373,425.034790 
	C65.680504,425.412750 64.502968,426.364349 63.505356,427.301788 
	C63.273258,427.519867 64.087143,429.373840 64.195915,429.352173 
	C65.466042,429.098938 66.700668,428.651123 67.928139,428.208862 
	C68.376801,428.047180 68.781563,427.763702 69.606216,427.507782 
z"/>
<path fill="#FEF2F1" opacity="1.000000" stroke="none" 
	d="
M343.289551,468.718628 
	C344.656281,468.383606 345.882782,468.347321 346.475586,467.716003 
	C347.128937,467.020233 347.200287,465.777985 347.525177,464.773804 
	C346.375549,464.588135 345.157745,464.065796 344.089478,464.282043 
	C341.271912,464.852386 338.519257,465.743378 335.291748,466.630035 
	C336.191437,458.901276 340.535126,455.579041 347.190643,456.307800 
	C353.357239,456.983002 356.938873,460.911438 356.142609,466.624298 
	C355.887268,468.456360 354.826447,470.378967 353.619385,471.832764 
	C351.213409,474.730560 346.206268,473.507874 344.150085,477.811310 
	C343.687256,478.779938 338.722412,479.036194 338.973785,474.521606 
	C339.065430,472.876129 338.988556,471.221283 338.988556,469.195557 
	C340.370483,469.038696 341.620209,468.896881 343.289551,468.718628 
z"/>
<path fill="#EC4E4F" opacity="1.000000" stroke="none" 
	d="
M320.273987,415.933350 
	C320.653473,414.583099 321.342255,413.194733 322.223267,411.285309 
	C322.381927,410.285583 322.348328,409.806915 322.314758,409.328217 
	C321.857727,407.173584 321.400696,405.018951 320.867706,402.492859 
	C321.961548,401.659454 323.728149,401.529236 324.200439,400.679565 
	C326.563232,396.428558 329.850433,396.375488 333.921997,398.312927 
	C331.660187,398.605652 329.203247,398.605652 325.665680,398.605652 
	C326.151154,406.812317 326.604248,414.471588 327.080811,422.552856 
	C326.305573,421.206207 325.222931,419.506165 324.774811,417.652710 
	C324.105621,414.884949 322.785797,414.561829 320.273987,415.933350 
z"/>
<path fill="#FFE9E8" opacity="1.000000" stroke="none" 
	d="
M346.856567,487.676880 
	C346.069489,488.316010 345.414001,489.056885 344.969513,488.946716 
	C342.743439,488.394745 340.334045,487.967407 338.520599,486.722198 
	C337.939087,486.322937 338.480103,482.536133 339.390961,482.085724 
	C341.210785,481.185883 344.110229,480.709564 345.667236,481.609528 
	C346.855865,482.296570 346.663483,485.372772 346.856567,487.676880 
z"/>
<path fill="#FFE9E8" opacity="1.000000" stroke="none" 
	d="
M65.824585,412.423218 
	C64.857384,410.419861 63.548138,408.466370 63.849960,406.805695 
	C64.055199,405.676453 66.452438,404.348999 67.984367,404.185272 
	C70.913986,403.872131 73.346115,405.289215 73.035271,408.672852 
	C72.646049,412.909668 69.652908,413.366669 65.824585,412.423218 
z"/>
<path fill="#EC5F5F" opacity="1.000000" stroke="none" 
	d="
M209.397095,429.072754 
	C215.200607,428.827789 221.335220,428.827789 227.375992,428.827789 
	C228.860413,422.704163 228.602295,422.329926 223.177765,422.301331 
	C221.382355,422.291870 219.586838,422.299866 217.929352,422.299866 
	C216.357391,418.125793 217.445480,416.403107 221.469360,416.730286 
	C222.957306,416.851257 224.464737,416.732483 226.407654,416.723267 
	C224.527161,417.353180 222.202301,417.982819 219.877441,418.612457 
	C219.777542,419.074615 219.677628,419.536774 219.577713,419.998932 
	C221.362320,420.361298 223.144165,421.007568 224.932144,421.025055 
	C228.321213,421.058167 229.824951,422.581421 229.724869,425.904602 
	C229.622482,429.303650 227.470169,429.971375 224.641800,429.858643 
	C219.671310,429.660583 214.699493,429.496185 209.397095,429.072754 
z"/>
<path fill="#EC4E4F" opacity="1.000000" stroke="none" 
	d="
M298.443481,399.121063 
	C298.806549,408.312653 298.840179,417.693054 298.897949,427.768250 
	C298.922058,428.463013 299.059265,428.932648 299.000031,429.007385 
	C298.940796,429.082153 298.821960,429.231354 298.821960,429.231354 
	C298.257935,428.278687 297.216156,427.331757 297.204681,426.372498 
	C297.103516,417.928314 297.168182,409.481812 297.252075,401.036682 
	C297.257812,400.458282 297.813904,399.885376 298.443481,399.121063 
z"/>
<path fill="#EF6465" opacity="1.000000" stroke="none" 
	d="
M255.887695,427.860687 
	C255.514618,421.477356 255.182281,414.825439 255.333847,408.184601 
	C255.452515,402.985840 259.782318,405.887634 262.634216,405.136414 
	C255.724304,406.798798 256.762329,412.513824 256.760895,417.842804 
	C256.760010,421.094238 256.358521,424.345520 255.887695,427.860687 
z"/>
<path fill="#EF6465" opacity="1.000000" stroke="none" 
	d="
M262.912231,398.377441 
	C255.679382,398.686890 248.236755,398.684784 240.337524,398.542816 
	C247.488113,398.290588 255.095291,398.178253 262.912231,398.377441 
z"/>
<path fill="#EF6465" opacity="1.000000" stroke="none" 
	d="
M263.501678,405.049713 
	C263.266052,403.313263 263.307892,401.529480 263.342865,399.299683 
	C264.312958,398.915894 265.289886,398.978119 266.635437,399.018982 
	C267.009979,408.375793 267.015900,417.753906 266.921906,427.596802 
	C266.570862,421.137665 266.368164,414.211334 266.020508,407.292328 
	C265.962982,406.147888 267.106689,403.198425 263.501678,405.049713 
z"/>
<path fill="#EF6465" opacity="1.000000" stroke="none" 
	d="
M284.915222,410.607971 
	C282.593384,410.756195 280.116669,410.748383 277.737762,410.262085 
	C276.798584,410.070068 275.280731,408.592072 275.420837,408.084656 
	C275.722900,406.990784 276.814850,405.497192 277.785858,405.327942 
	C280.180206,404.910583 282.688629,405.147949 285.609192,405.132507 
	C283.419403,405.999878 280.771606,406.856781 277.276581,407.987915 
	C280.213837,408.875153 282.506683,409.567719 284.915222,410.607971 
z"/>
<path fill="#EC5F5F" opacity="1.000000" stroke="none" 
	d="
M226.927490,410.562592 
	C224.602829,410.712616 222.122025,410.714874 219.737564,410.236694 
	C218.795685,410.047791 217.261475,408.543091 217.406509,408.067078 
	C217.737778,406.979980 218.816803,405.555603 219.812057,405.353973 
	C221.867096,404.937592 224.065811,405.230408 226.639221,405.359924 
	C225.048248,406.234009 223.023453,406.979645 220.253250,407.999756 
	C222.834137,408.874634 224.822037,409.548492 226.927490,410.562592 
z"/>
<path fill="#EC4E4F" opacity="1.000000" stroke="none" 
	d="
M352.139069,420.782166 
	C351.923706,413.962585 352.032227,406.916443 352.145447,399.396698 
	C352.670074,399.522156 353.663666,400.142883 353.637451,400.717010 
	C353.335297,407.333984 352.878571,413.943878 352.139069,420.782166 
z"/>
<path fill="#EC4E4F" opacity="1.000000" stroke="none" 
	d="
M343.507629,399.113647 
	C343.463440,405.832092 343.083893,412.737061 342.357330,419.827789 
	C342.030731,414.801514 341.964172,409.586853 342.121155,404.378937 
	C342.172455,402.677002 342.805359,400.992584 343.507629,399.113647 
z"/>
<path fill="#EC4E4F" opacity="1.000000" stroke="none" 
	d="
M319.807922,400.794556 
	C313.576782,397.363556 306.604187,399.036469 299.395386,398.748535 
	C303.842529,395.544891 315.100586,396.462463 319.807922,400.794556 
z"/>
<path fill="#EC4E4F" opacity="1.000000" stroke="none" 
	d="
M335.585785,418.813354 
	C335.114594,412.801788 334.756927,406.312317 334.412872,399.348419 
	C334.932678,402.201599 335.655823,405.514526 335.882111,408.861115 
	C336.094421,412.000763 335.781219,415.175934 335.585785,418.813354 
z"/>
<path fill="#EC5F5F" opacity="1.000000" stroke="none" 
	d="
M227.885712,398.437653 
	C222.028122,398.791595 215.981506,398.820099 209.474075,398.936005 
	C209.896851,398.430511 210.791992,397.311584 211.662109,397.330688 
	C217.010101,397.448273 222.352432,397.823059 227.885712,398.437653 
z"/>
<path fill="#EF6465" opacity="1.000000" stroke="none" 
	d="
M285.891266,398.488037 
	C280.023438,398.831390 273.974670,398.843170 267.462311,398.931183 
	C267.889587,398.423859 268.793060,397.320526 269.669250,397.341766 
	C275.019714,397.471497 280.363983,397.856567 285.891266,398.488037 
z"/>
<path fill="#EC4E4F" opacity="1.000000" stroke="none" 
	d="
M375.889954,398.372223 
	C370.032410,398.716858 363.971710,398.742676 357.448975,398.855713 
	C357.873444,398.338562 358.773285,397.196167 359.644348,397.217743 
	C364.995453,397.350128 370.340088,397.745544 375.889954,398.372223 
z"/>
<path fill="#EC5F5F" opacity="1.000000" stroke="none" 
	d="
M208.793488,399.351929 
	C209.048279,408.670258 209.075668,418.333984 209.141541,428.462891 
	C208.803284,426.559296 208.106232,424.190094 208.109344,421.821838 
	C208.119049,414.446808 208.393997,407.072113 208.793488,399.351929 
z"/>
<path fill="#EC4E4F" opacity="1.000000" stroke="none" 
	d="
M356.575195,400.326752 
	C356.864197,409.318115 356.961395,418.677948 357.111084,428.506104 
	C356.771057,426.610046 356.058014,424.247253 356.046234,421.880951 
	C356.011078,414.819794 356.250977,407.757202 356.575195,400.326752 
z"/>
<path fill="#EC4E4F" opacity="1.000000" stroke="none" 
	d="
M332.140442,428.332916 
	C337.153503,429.496246 342.239502,429.966095 347.461975,426.887756 
	C344.772034,431.230438 338.150818,432.026611 332.140442,428.332916 
z"/>
<path fill="#EC4E4F" opacity="1.000000" stroke="none" 
	d="
M357.354187,429.100098 
	C363.033264,428.872711 369.045135,428.897369 375.524414,428.946777 
	C369.890198,429.098419 363.788605,429.225281 357.354187,429.100098 
z"/>
<path fill="#EC4E4F" opacity="1.000000" stroke="none" 
	d="
M351.913940,398.512665 
	C349.661987,398.799744 347.241364,398.767822 344.368774,398.777283 
	C346.526276,398.610352 349.135742,398.402008 351.913940,398.512665 
z"/>
<path fill="#EC4E4F" opacity="1.000000" stroke="none" 
	d="
M314.061005,418.186646 
	C314.788910,418.106323 315.516815,418.025970 316.612366,417.948853 
	C314.040680,418.667999 311.101318,419.383911 307.735809,420.120972 
	C308.600555,419.667877 309.891449,419.193634 311.841370,418.714417 
	C313.020630,418.535156 313.540802,418.360901 314.061005,418.186646 
z"/>
<path fill="#EF6465" opacity="1.000000" stroke="none" 
	d="
M286.460632,404.939575 
	C286.147461,403.316803 286.144348,401.561462 286.156860,399.368500 
	C286.371918,400.889587 286.571320,402.848297 286.460632,404.939575 
z"/>
<path fill="#EC5F5F" opacity="1.000000" stroke="none" 
	d="
M228.827026,403.965393 
	C228.516174,402.980255 228.431274,401.833008 228.489166,400.272888 
	C228.772308,401.174438 228.912628,402.488831 228.827026,403.965393 
z"/>
<path fill="#EC4E4F" opacity="1.000000" stroke="none" 
	d="
M341.610168,419.987183 
	C339.999146,420.058380 337.984894,420.106079 335.793427,419.829468 
	C337.479767,419.658020 339.343384,419.810852 341.610168,419.987183 
z"/>
<path fill="#EC4E4F" opacity="1.000000" stroke="none" 
	d="
M300.001068,428.759857 
	C301.724823,428.827148 303.448608,428.894409 305.592926,429.048767 
	C303.848419,429.264069 301.683350,429.392334 299.170105,429.375977 
	C298.821960,429.231354 298.940796,429.082153 299.240631,428.992279 
	C299.540466,428.902405 300.001068,428.759857 300.001068,428.759857 
z"/>
<path fill="#EC4E4F" opacity="1.000000" stroke="none" 
	d="
M403.745728,401.889465 
	C402.932312,401.710175 402.036896,401.201172 400.992493,400.418457 
	C401.783600,400.616425 402.723694,401.088074 403.745728,401.889465 
z"/>
<path fill="#EC5F5F" opacity="1.000000" stroke="none" 
	d="
M227.302185,415.762085 
	C227.059265,414.638672 227.001831,413.229309 227.003418,411.401367 
	C227.204163,412.480591 227.345917,413.978394 227.302185,415.762085 
z"/>
<path fill="#EC4E4F" opacity="1.000000" stroke="none" 
	d="
M350.145172,424.732269 
	C350.253662,423.846252 350.713318,422.845581 351.407745,421.608643 
	C351.260468,422.454132 350.878387,423.535858 350.145172,424.732269 
z"/>
<path fill="#EC4E4F" opacity="1.000000" stroke="none" 
	d="
M317.288513,417.972321 
	C317.758942,417.350769 318.567078,416.734497 319.674469,416.040771 
	C319.191223,416.634766 318.408722,417.306183 317.288513,417.972321 
z"/>
<path fill="#EC4E4F" opacity="1.000000" stroke="none" 
	d="
M307.404419,427.805115 
	C307.171936,426.969025 307.112915,425.870422 307.156555,424.369019 
	C307.365448,425.158325 307.471649,426.350464 307.404419,427.805115 
z"/>
<path fill="#EC4E4F" opacity="1.000000" stroke="none" 
	d="
M327.104431,423.203674 
	C327.444855,423.351074 327.817017,423.800262 328.243286,424.544800 
	C327.910309,424.395233 327.523224,423.950317 327.104431,423.203674 
z"/>
<path fill="#EC4E4F" opacity="1.000000" stroke="none" 
	d="
M330.253540,427.042908 
	C330.618225,427.031342 331.149506,427.266266 331.836731,427.752441 
	C331.468475,427.765533 330.944275,427.527466 330.253540,427.042908 
z"/>
<path fill="#EC4E4F" opacity="1.000000" stroke="none" 
	d="
M328.294647,424.972626 
	C328.483673,424.939392 328.775177,425.150940 329.127136,425.635376 
	C328.924072,425.678009 328.660614,425.447693 328.294647,424.972626 
z"/>
<path fill="#EC4E4F" opacity="1.000000" stroke="none" 
	d="
M349.068542,425.792664 
	C349.008148,425.606262 349.174774,425.283875 349.607117,424.872284 
	C349.680450,425.074249 349.488037,425.365448 349.068542,425.792664 
z"/>
<path fill="#EC4E4F" opacity="1.000000" stroke="none" 
	d="
M329.223633,426.047302 
	C329.411560,425.994507 329.717743,426.179260 330.110474,426.626526 
	C329.911957,426.687683 329.626923,426.486267 329.223633,426.047302 
z"/>
<path fill="#FFE9E8" opacity="1.000000" stroke="none" 
	d="
M306.250671,428.857361 
	C306.123901,428.585114 306.306946,428.375031 306.700745,428.079590 
	C306.758087,428.270935 306.641083,428.579315 306.250671,428.857361 
z"/>
<path fill="#EC4E4F" opacity="1.000000" stroke="none" 
	d="
M404.755371,403.083313 
	C404.560760,403.122498 404.250305,402.902191 403.848389,402.404541 
	C404.051147,402.359436 404.345337,402.591644 404.755371,403.083313 
z"/>
<path fill="#EC4E4F" opacity="1.000000" stroke="none" 
	d="
M320.770874,401.963928 
	C320.574646,402.010742 320.274109,401.813141 319.906982,401.345215 
	C320.115753,401.289764 320.391144,401.504639 320.770874,401.963928 
z"/>
<path fill="#EC4E4F" opacity="1.000000" stroke="none" 
	d="
M348.018585,426.755066 
	C347.978516,426.565979 348.182098,426.271790 348.655945,425.908203 
	C348.704865,426.109192 348.483551,426.379547 348.018585,426.755066 
z"/>
<path fill="#ED4747" opacity="1.000000" stroke="none" 
	d="
M367.124329,363.490173 
	C365.352753,363.649261 362.975647,363.976196 362.036926,362.966217 
	C359.042725,359.744720 356.582947,356.026520 352.707062,352.710999 
	C352.707062,355.242889 352.776947,357.777283 352.686127,360.305908 
	C352.606049,362.535767 353.582184,365.739960 348.918396,364.724792 
	C348.918396,357.963440 348.918396,351.255524 348.918396,344.299316 
	C353.501373,342.812195 354.438110,346.887634 356.370483,349.111206 
	C358.401093,351.447876 360.132019,354.045044 363.171722,356.310089 
	C363.171722,353.771332 363.068970,351.227142 363.202972,348.695465 
	C363.317780,346.527374 362.177643,343.189667 367.177185,344.279449 
	C367.177185,350.515198 367.177185,356.780640 367.124329,363.490173 
z"/>
<path fill="#EA4A4A" opacity="1.000000" stroke="none" 
	d="
M123.118439,343.592438 
	C130.745834,344.604675 134.811554,348.505371 134.809235,354.430298 
	C134.807083,359.928131 130.584305,364.534698 124.993095,365.138550 
	C118.475998,365.842377 113.212067,362.096313 112.229912,356.055695 
	C111.207474,349.767303 115.261734,344.967651 123.118439,343.592438 
M121.998619,347.498962 
	C120.973557,348.023895 119.809219,348.382660 118.948723,349.103912 
	C116.008453,351.568512 115.612129,356.026855 118.132515,358.879974 
	C120.832581,361.936401 124.203712,362.404449 127.461418,360.073212 
	C130.725266,357.737579 131.606049,354.094849 129.272842,350.915588 
	C127.941208,349.101074 124.972610,348.487915 121.998619,347.498962 
z"/>
<path fill="#E84647" opacity="1.000000" stroke="none" 
	d="
M142.834717,343.952759 
	C144.856155,345.133972 146.715179,346.152283 148.021179,347.652130 
	C150.481964,350.478241 152.624039,353.581879 154.963242,356.655060 
	C158.158020,352.780945 152.909912,346.461670 159.746979,343.091125 
	C159.746979,350.953552 159.746979,357.697723 159.746979,365.175568 
	C151.906494,364.196106 151.387680,355.545441 145.247375,352.147552 
	C145.247375,355.912628 145.331589,359.319855 145.182495,362.716858 
	C145.149200,363.475433 144.415344,364.652344 143.789734,364.815643 
	C143.098160,364.996124 141.427094,364.208771 141.437866,363.884644 
	C141.658188,357.255249 142.058350,350.631866 142.834717,343.952759 
z"/>
<path fill="#E94848" opacity="1.000000" stroke="none" 
	d="
M323.831757,345.699768 
	C329.125916,342.733307 334.032196,342.666656 338.438110,346.504761 
	C341.693787,349.340912 342.822296,353.140839 341.541962,357.330139 
	C340.091736,362.075562 336.804138,364.784790 331.773895,365.179718 
	C326.848877,365.566467 322.966034,363.806915 320.623505,359.352875 
	C318.198730,354.742584 319.192291,350.488373 323.831757,345.699768 
M333.443878,347.962006 
	C328.440948,346.920105 324.931000,348.575592 324.016663,352.553864 
	C323.165527,356.257355 324.429108,359.254791 327.887726,360.816742 
	C331.354706,362.382507 334.667511,361.460449 336.560974,358.186890 
	C338.763519,354.378998 337.990692,350.825623 333.443878,347.962006 
z"/>
<path fill="#EA4A4A" opacity="1.000000" stroke="none" 
	d="
M375.174011,350.144318 
	C375.175049,348.024536 375.175049,346.383942 375.175049,344.294800 
	C380.541412,344.294800 385.559967,344.294800 390.578552,344.294800 
	C390.790558,344.634705 391.002533,344.974609 391.214539,345.314514 
	C390.194855,346.013763 389.249207,347.120636 388.139191,347.322144 
	C386.202637,347.673706 384.093201,347.165680 382.197968,347.615356 
	C381.154907,347.862793 380.400818,349.328156 379.516449,350.244415 
	C380.379028,351.019928 381.139313,352.248230 382.126709,352.471283 
	C383.874908,352.866241 385.784241,352.495483 387.578583,352.763641 
	C388.325165,352.875214 388.949585,353.803925 389.629578,354.361084 
	C388.982971,354.946136 388.414337,355.869873 387.672424,356.040588 
	C386.405365,356.332123 384.903473,355.814240 383.730988,356.252991 
	C382.206329,356.823578 380.907166,357.996674 379.510925,358.910461 
	C380.826050,359.709900 382.053406,360.847900 383.479828,361.217621 
	C385.038971,361.621704 386.846680,361.040680 388.423645,361.410675 
	C389.552429,361.675537 390.479645,362.799530 391.496826,363.540161 
	C391.284302,363.939087 391.071777,364.338013 390.859253,364.736938 
	C385.820496,364.736938 380.781738,364.736938 375.173004,364.736938 
	C375.173004,359.851044 375.173004,355.237274 375.174011,350.144318 
z"/>
<path fill="#EA4646" opacity="1.000000" stroke="none" 
	d="
M226.545700,364.974792 
	C224.808456,364.064240 222.882889,363.403656 222.196304,362.093689 
	C220.559708,358.971039 218.427948,358.262238 216.171661,359.087372 
	C214.755875,361.483582 213.722824,363.231995 212.689774,364.980377 
	C211.998108,362.938690 210.839233,360.926300 210.709137,358.849426 
	C210.410950,354.088898 210.614777,349.296906 210.614777,343.863556 
	C216.640625,344.537781 222.953629,341.468933 226.994537,347.630310 
	C229.605835,351.611847 227.567276,355.234070 224.651886,357.913971 
	C225.466660,360.433411 226.193649,362.681488 226.545700,364.974792 
M214.766556,352.506775 
	C215.576355,357.311127 219.140182,354.937927 221.401489,354.625275 
	C222.413025,354.485474 223.095703,351.967163 223.927612,350.528229 
	C221.918518,349.472809 220.014389,347.951050 217.876053,347.469727 
	C214.550339,346.721069 214.702545,349.375092 214.766556,352.506775 
z"/>
<path fill="#E94848" opacity="1.000000" stroke="none" 
	d="
M403.325806,365.081909 
	C396.487885,363.175842 396.185089,362.812286 397.889954,359.362579 
	C400.453278,360.034302 402.938354,360.926086 405.493073,361.227173 
	C406.412811,361.335571 407.499939,360.023621 408.510681,359.359863 
	C407.847290,358.515778 407.352936,357.341553 406.484924,356.897095 
	C404.730774,355.998993 402.459869,355.892212 400.987366,354.722412 
	C399.467285,353.514801 397.662537,351.367371 397.769745,349.749512 
	C397.894073,347.872650 399.648224,345.026550 401.259277,344.563171 
	C404.090729,343.748688 407.393402,344.164337 410.404938,344.648468 
	C411.240265,344.782745 411.744812,346.974701 412.195374,347.831421 
	C408.177368,348.163452 405.272552,348.403473 402.367767,348.643524 
	C404.540863,350.199371 406.986267,351.493011 408.809113,353.386169 
	C410.567902,355.212769 412.840515,357.718262 412.731110,359.812958 
	C412.637085,361.613586 409.654633,363.477600 407.641541,364.867706 
	C406.721893,365.502777 405.061615,365.065369 403.325806,365.081909 
z"/>
<path fill="#E94848" opacity="1.000000" stroke="none" 
	d="
M176.609711,347.484802 
	C174.832092,347.767242 173.414520,348.146515 171.996933,348.525787 
	C171.923218,349.077271 171.849503,349.628723 171.775787,350.180176 
	C173.885849,351.126953 175.957123,352.175568 178.114990,352.996704 
	C181.381271,354.239532 183.719574,356.133484 183.030396,359.986053 
	C182.354904,363.762115 179.486938,365.168213 176.082565,365.031311 
	C173.510880,364.927948 170.860916,364.289886 168.473846,363.325348 
	C167.547867,362.951202 167.249039,361.024902 166.290390,359.025299 
	C170.488770,360.024719 173.136856,360.838196 175.844818,361.187347 
	C176.649612,361.291107 177.622620,360.090271 178.518539,359.487213 
	C177.891632,358.623932 177.444778,357.433594 176.598953,356.967987 
	C175.021088,356.099396 172.857285,356.053192 171.585373,354.930542 
	C169.897797,353.440979 167.559174,351.045105 167.820145,349.408630 
	C168.145309,347.369507 170.576431,344.600464 172.562408,344.137421 
	C175.676346,343.411346 179.178925,344.352051 182.625977,344.594513 
	C182.147751,350.823639 179.095688,347.852692 176.609711,347.484802 
z"/>
<path fill="#EB4545" opacity="1.000000" stroke="none" 
	d="
M244.047028,365.213562 
	C235.584076,364.024994 233.762222,360.296875 235.034592,346.896851 
	C235.147476,345.708038 236.638779,344.650116 237.489868,343.531372 
	C238.012451,343.809113 238.535034,344.086853 239.057617,344.364594 
	C239.057617,348.157227 239.049652,351.949921 239.059937,355.742523 
	C239.069641,359.313934 240.708969,361.554321 244.429749,361.440857 
	C247.948654,361.333527 249.253799,359.029175 249.205750,355.717712 
	C249.162338,352.724640 249.042282,349.716339 249.299881,346.744537 
	C249.384430,345.769165 250.545547,344.887085 251.214355,343.962372 
	C251.912384,344.840790 253.135269,345.675507 253.212723,346.605591 
	C253.474075,349.744751 253.429306,352.921295 253.317352,356.077026 
	C253.101669,362.157990 250.850555,364.421570 244.047028,365.213562 
z"/>
<path fill="#E94A4B" opacity="1.000000" stroke="none" 
	d="
M290.426025,344.305847 
	C293.984497,344.501678 297.246216,344.629608 300.376465,345.338226 
	C301.113525,345.505096 301.407318,347.630005 301.905029,348.854126 
	C301.461273,349.074768 301.017548,349.295380 300.573822,349.515991 
	C299.405731,348.965576 298.177002,347.857208 297.081696,347.976288 
	C294.481964,348.258972 291.013123,348.339111 289.641541,349.969757 
	C288.225250,351.653534 287.932922,355.510010 288.903961,357.600891 
	C289.737885,359.396637 292.973816,360.243744 295.299927,361.093170 
	C296.168396,361.410339 297.455353,360.350006 298.574738,360.277771 
	C299.662476,360.207581 300.779968,360.598541 301.884399,360.786987 
	C301.271118,361.786926 300.891693,363.138763 300.005310,363.727661 
	C295.450317,366.753906 288.514282,365.241150 285.342255,360.705139 
	C281.928772,355.823883 282.990356,349.480164 287.904907,345.643951 
	C288.548737,345.141388 289.351929,344.843048 290.426025,344.305847 
z"/>
<path fill="#E94A4B" opacity="1.000000" stroke="none" 
	d="
M93.217300,351.715149 
	C92.619659,360.039246 95.987022,362.526184 103.775658,360.186340 
	C104.706680,359.906586 105.942863,360.642609 107.037613,360.907776 
	C106.486023,361.793610 106.132828,362.954773 105.349625,363.519135 
	C101.239243,366.481079 94.705643,365.614075 91.222687,361.789642 
	C87.629456,357.844116 87.468163,351.709564 90.849655,347.603455 
	C94.240936,343.485443 101.077866,342.226776 105.288200,345.208282 
	C106.225143,345.871796 106.445274,347.547577 106.414223,349.252014 
	C101.104012,346.815063 96.701431,345.849335 93.217300,351.715149 
z"/>
<path fill="#E94A4B" opacity="1.000000" stroke="none" 
	d="
M260.515747,359.275574 
	C258.430145,353.871399 259.253052,349.345276 263.560394,345.949402 
	C267.276978,343.019196 271.586578,342.797302 275.744873,344.953003 
	C276.822296,345.511536 277.272644,347.279785 278.011017,348.492371 
	C277.567383,348.824768 277.123718,349.157166 276.680084,349.489563 
	C275.527985,348.968811 274.325989,347.926788 273.233704,348.031281 
	C270.624390,348.280945 266.988129,348.251678 265.769348,349.856262 
	C264.340332,351.737671 264.017303,355.759003 265.113495,357.862579 
	C266.053650,359.666718 269.624115,360.221497 272.131042,361.013000 
	C272.871765,361.246826 273.933441,360.199371 274.880188,360.119415 
	C275.830872,360.039124 276.821594,360.433167 277.794769,360.619354 
	C277.411499,361.546631 277.288300,362.796082 276.603027,363.349213 
	C271.949799,367.105408 265.018494,365.417542 260.515747,359.275574 
z"/>
<path fill="#E64E4E" opacity="1.000000" stroke="none" 
	d="
M192.178192,347.673523 
	C190.446350,346.954254 189.160095,346.300598 187.873840,345.646942 
	C189.155304,345.041290 190.402451,344.022461 191.725082,343.912659 
	C194.856445,343.652679 198.038101,343.648621 201.169479,343.905792 
	C202.472061,344.012787 203.698349,345.049072 204.959335,345.662750 
	C203.841003,346.296143 202.761459,347.018341 201.589996,347.530090 
	C200.870270,347.844482 200.009857,347.836792 198.480011,348.099579 
	C198.480011,352.716461 198.609695,357.312500 198.383759,361.890961 
	C198.330978,362.960632 197.071945,363.970795 196.367905,365.008331 
	C195.632004,363.991455 194.351334,363.020203 194.261719,361.949249 
	C193.985962,358.653870 194.318420,355.310272 194.098251,352.006470 
	C194.001694,350.557709 193.138748,349.160034 192.178192,347.673523 
z"/>
<path fill="#DD4849" opacity="1.000000" stroke="none" 
	d="
M308.999451,355.959351 
	C309.008087,352.335052 308.888428,349.189514 309.117401,346.069580 
	C309.172546,345.318787 310.383820,344.652863 311.063385,343.947906 
	C311.741333,344.655029 312.985657,345.345337 313.007233,346.071960 
	C313.173706,351.678986 313.176331,357.295105 313.015930,362.902313 
	C312.995483,363.616699 311.740692,364.295807 311.057770,364.991241 
	C310.382080,364.289124 309.226288,363.650665 309.123077,362.872559 
	C308.843140,360.762543 309.009674,358.593292 308.999451,355.959351 
M310.017792,349.323547 
	C310.017792,353.795715 310.017792,358.267914 310.017792,362.740082 
	C310.669281,362.705353 311.320740,362.670654 311.972229,362.635925 
	C311.972229,358.078674 311.989777,353.521057 311.892609,348.965881 
	C311.889496,348.820557 310.708954,348.700409 310.017792,349.323547 
z"/>
<path fill="#F83535" opacity="1.000000" stroke="none" 
	d="
M114.678452,115.172470 
	C114.622284,103.457726 114.622284,92.163460 114.622284,80.452759 
	C122.124985,80.452759 129.309784,80.452759 137.102905,80.452759 
	C137.102905,87.441803 137.168152,94.370323 137.026947,101.294632 
	C137.007553,102.246307 136.184692,103.506088 135.356903,104.064919 
	C129.299133,108.154366 123.164490,112.131897 116.983154,116.032310 
	C116.513176,116.328857 115.496933,115.759689 114.678452,115.172470 
z"/>
<path fill="#F13F40" opacity="1.000000" stroke="none" 
	d="
M245.744965,273.192200 
	C243.063828,273.494781 240.746704,274.024200 238.477859,273.865143 
	C234.586060,273.592285 231.217545,271.923309 230.320557,267.791016 
	C229.398499,263.543243 231.495621,260.513123 235.831116,258.199890 
	C239.831558,262.773956 243.850174,267.368805 247.983078,272.094330 
	C247.939651,272.118134 247.035187,272.613708 245.744965,273.192200 
z"/>
<path fill="#F23C3C" opacity="1.000000" stroke="none" 
	d="
M335.867432,236.196045 
	C335.969116,235.071594 336.054504,233.860031 336.159485,233.858337 
	C340.166779,233.793396 344.424377,233.047760 348.082611,234.195969 
	C349.986938,234.793655 351.570312,238.639511 351.989014,241.229843 
	C352.637085,245.239380 350.071808,247.872498 346.073395,248.350861 
	C343.004059,248.718063 339.855652,248.423935 335.860321,248.423935 
	C335.860321,244.438599 335.860321,240.555878 335.867432,236.196045 
z"/>
<path fill="#E25355" opacity="1.000000" stroke="none" 
	d="
M157.435181,232.995087 
	C163.596252,234.851883 165.582565,238.048965 164.247940,243.297180 
	C162.957275,248.372452 158.034592,249.935867 148.256424,248.212830 
	C148.256424,243.403198 148.256424,238.529617 148.256424,232.964340 
	C151.187500,232.964340 154.095657,232.964340 157.435181,232.995087 
M162.884430,242.180649 
	C162.571808,236.712326 159.370911,233.797928 153.991745,233.947144 
	C147.971191,234.114136 150.474472,238.702667 149.924820,241.693878 
	C149.807266,242.333542 149.676910,243.234100 150.009308,243.643890 
	C151.013138,244.881470 152.131760,246.736847 153.403595,246.911728 
	C157.091934,247.418915 160.816147,247.084961 162.884430,242.180649 
z"/>
<path fill="#F23C3C" opacity="1.000000" stroke="none" 
	d="
M163.811615,408.175903 
	C166.840836,414.827515 165.352051,420.140717 160.436371,421.061493 
	C157.295105,421.649902 154.350647,421.160248 152.849686,417.881348 
	C151.212677,414.305298 151.128952,410.559601 154.125259,407.760834 
	C157.028656,405.048798 160.442627,405.249176 163.811615,408.175903 
z"/>
<path fill="#F13F40" opacity="1.000000" stroke="none" 
	d="
M248.593063,481.235931 
	C245.222061,481.823425 243.837540,480.851349 244.031418,477.623535 
	C244.248871,474.002899 244.081360,470.359100 244.081360,466.814941 
	C249.884277,465.404510 253.429276,466.989288 254.672577,471.306488 
	C255.976425,475.833832 253.955139,479.370422 248.593063,481.235931 
z"/>
<path fill="#F23C3C" opacity="1.000000" stroke="none" 
	d="
M433.618134,413.912262 
	C432.342773,419.928314 429.884521,421.947693 425.291382,421.128143 
	C421.477234,420.447571 419.444885,417.102997 419.964203,412.392303 
	C420.416595,408.288696 422.742828,406.007141 426.816956,406.026367 
	C431.616028,406.049011 433.356689,409.208557 433.618134,413.912262 
z"/>
<path fill="#D6595B" opacity="1.000000" stroke="none" 
	d="
M315.901062,468.314026 
	C315.167297,473.232697 311.828217,471.882050 308.651428,471.884827 
	C308.651428,469.963501 308.651428,468.215820 308.651428,464.972107 
	C311.334991,466.076843 313.584900,467.003113 315.901062,468.314026 
z"/>
<path fill="#F23C3C" opacity="1.000000" stroke="none" 
	d="
M388.949890,414.960419 
	C388.952515,411.846741 388.952515,409.210510 388.952515,404.824158 
	C392.690369,406.467224 396.632538,406.976990 397.940765,409.105591 
	C399.361176,411.416718 399.423798,415.880371 398.048950,418.205139 
	C396.781860,420.347656 392.822784,420.898132 388.947235,422.647430 
	C388.947235,419.026825 388.947235,417.232330 388.949890,414.960419 
z"/>
<path fill="#EC5F5F" opacity="1.000000" stroke="none" 
	d="
M158.376770,474.644073 
	C158.726242,479.960297 155.284943,476.628296 152.595154,478.193237 
	C153.771759,474.482483 154.569061,471.967926 155.366379,469.453369 
	C155.725220,469.447815 156.084061,469.442261 156.442917,469.436707 
	C157.047424,471.053436 157.651947,472.670166 158.376770,474.644073 
z"/>
<path fill="#EC5F5F" opacity="1.000000" stroke="none" 
	d="
M280.659912,469.989746 
	C282.133026,472.009949 283.373199,474.302124 285.018250,477.342590 
	C282.171600,477.342590 280.611877,477.342590 278.274261,477.342590 
	C279.055237,474.773682 279.741119,472.517700 280.659912,469.989746 
z"/>
<path fill="#E64E4E" opacity="1.000000" stroke="none" 
	d="
M307.029053,409.063416 
	C308.037384,407.558044 309.187378,405.490753 310.036621,405.607697 
	C311.452026,405.802551 312.674835,407.396332 313.978760,408.401123 
	C313.053619,409.581757 312.346680,411.365753 311.150970,411.798187 
	C309.461456,412.409119 306.926849,412.841095 307.029053,409.063416 
z"/>
<path fill="#FFE9E8" opacity="1.000000" stroke="none" 
	d="
M313.899963,418.019226 
	C313.540802,418.360901 313.020630,418.535156 312.224365,418.638672 
	C312.545135,418.329224 313.142029,418.090485 313.899963,418.019226 
z"/>
<path fill="#FFE9E8" opacity="1.000000" stroke="none" 
	d="
M299.868744,428.603973 
	C300.001068,428.759857 299.540466,428.902405 299.299866,428.917542 
	C299.059265,428.932648 298.922058,428.463013 298.991638,428.228424 
	C299.317108,428.099457 299.542175,428.250885 299.868744,428.603973 
z"/>
<path fill="#FFE9E8" opacity="1.000000" stroke="none" 
	d="
M322.222107,409.775360 
	C322.348328,409.806915 322.381927,410.285583 322.238129,410.948730 
	C322.083679,410.829651 322.106567,410.526062 322.222107,409.775360 
z"/>
<path fill="#FEF3F2" opacity="1.000000" stroke="none" 
	d="
M122.369858,347.416382 
	C124.972610,348.487915 127.941208,349.101074 129.272842,350.915588 
	C131.606049,354.094849 130.725266,357.737579 127.461418,360.073212 
	C124.203712,362.404449 120.832581,361.936401 118.132515,358.879974 
	C115.612129,356.026855 116.008453,351.568512 118.948723,349.103912 
	C119.809219,348.382660 120.973557,348.023895 122.369858,347.416382 
z"/>
<path fill="#FEF2F1" opacity="1.000000" stroke="none" 
	d="
M333.790222,348.110535 
	C337.990692,350.825623 338.763519,354.378998 336.560974,358.186890 
	C334.667511,361.460449 331.354706,362.382507 327.887726,360.816742 
	C324.429108,359.254791 323.165527,356.257355 324.016663,352.553864 
	C324.931000,348.575592 328.440948,346.920105 333.790222,348.110535 
z"/>
<path fill="#FFE9E8" opacity="1.000000" stroke="none" 
	d="
M214.761078,352.056274 
	C214.702545,349.375092 214.550339,346.721069 217.876053,347.469727 
	C220.014389,347.951050 221.918518,349.472809 223.927612,350.528229 
	C223.095703,351.967163 222.413025,354.485474 221.401489,354.625275 
	C219.140182,354.937927 215.576355,357.311127 214.761078,352.056274 
z"/>
<path fill="#FE3232" opacity="1.000000" stroke="none" 
	d="
M310.047546,348.946045 
	C310.708954,348.700409 311.889496,348.820557 311.892609,348.965881 
	C311.989777,353.521057 311.972229,358.078674 311.972229,362.635925 
	C311.320740,362.670654 310.669281,362.705353 310.017792,362.740082 
	C310.017792,358.267914 310.017792,353.795715 310.047546,348.946045 
z"/>
<path fill="#FE3232" opacity="1.000000" stroke="none" 
	d="
M162.796249,242.567505 
	C160.816147,247.084961 157.091934,247.418915 153.403595,246.911728 
	C152.131760,246.736847 151.013138,244.881470 150.009308,243.643890 
	C149.676910,243.234100 149.807266,242.333542 149.924820,241.693878 
	C150.474472,238.702667 147.971191,234.114136 153.991745,233.947144 
	C159.370911,233.797928 162.571808,236.712326 162.796249,242.567505 
z"/>
</svg>